<?xml version="1.0" standalone="no"?>
<!DOCTYPE svg PUBLIC "-//W3C//DTD SVG 20010904//EN"
 "http://www.w3.org/TR/2001/REC-SVG-20010904/DTD/svg10.dtd">
<svg version="1.0" xmlns="http://www.w3.org/2000/svg"
 width="1309.000000pt" height="976.000000pt" viewBox="0 0 1309.000000 976.000000"
 preserveAspectRatio="xMidYMid meet">

<g transform="translate(0.000000,976.000000) scale(0.100000,-0.100000)"
fill="#000000" stroke="none">
<path d="M7711 9745 c-159 -45 -284 -172 -326 -330 -66 -256 101 -518 363
-567 l62 -12 0 -256 c0 -190 3 -260 13 -272 6 -8 118 -64 247 -123 129 -59
238 -111 242 -114 7 -6 -156 -968 -166 -978 -2 -2 -292 130 -645 294 l-641
298 0 225 0 226 71 11 c236 37 404 250 386 488 -13 175 -129 331 -295 396 -82
33 -242 33 -324 0 -166 -65 -282 -221 -295 -396 -18 -233 144 -444 375 -487
l62 -12 0 -231 0 -232 228 -106 c125 -59 416 -194 647 -302 l420 -195 -3 -54
c-1 -30 -6 -64 -10 -77 -7 -19 -208 -95 -1373 -520 -750 -274 -1365 -499
-1366 -499 -2 0 -3 177 -3 393 l0 393 71 11 c236 37 404 250 386 488 -13 175
-129 331 -295 396 -82 33 -242 33 -324 0 -166 -65 -282 -221 -295 -396 -18
-233 144 -444 375 -487 l62 -12 0 -397 c0 -308 -3 -398 -12 -402 -7 -2 -209
-75 -448 -162 -239 -87 -442 -166 -450 -174 -13 -13 -14 -27 -7 -84 5 -38 5
-72 0 -77 -9 -8 -339 -130 -353 -130 -5 0 -39 59 -76 131 -37 72 -73 133 -81
136 -12 5 -3910 -1401 -3925 -1415 -4 -4 70 -426 165 -937 l172 -929 840 -794
c641 -606 843 -803 854 -831 8 -22 43 -63 90 -106 42 -38 137 -127 211 -196
344 -322 363 -339 378 -327 13 11 -11 36 -238 245 l-45 41 99 46 99 46 22 -20
c16 -15 24 -17 33 -8 9 9 8 16 -4 30 -16 16 3 27 342 193 197 97 363 174 369
171 6 -2 71 -88 144 -191 106 -149 135 -184 146 -175 14 11 -16 57 -211 327
l-45 62 128 64 c402 201 796 388 803 380 5 -4 43 -96 86 -203 42 -107 81 -199
85 -204 6 -6 13 -6 19 0 8 8 -14 74 -70 216 -44 112 -80 209 -80 214 0 17 852
428 860 415 3 -6 26 -104 50 -216 37 -177 46 -205 62 -205 10 0 18 1 18 3 0 1
-22 102 -49 225 l-48 223 126 63 c132 66 208 96 137 54 -21 -13 -38 -27 -38
-33 4 -27 249 -465 260 -465 8 0 289 139 625 308 458 231 934 458 1894 903
l1282 594 53 112 c34 72 58 111 68 110 8 0 62 22 120 49 81 39 132 73 225 151
82 69 149 115 212 146 91 46 92 48 142 129 28 45 51 86 51 91 0 6 -30 42 -67
81 -68 72 -68 73 -143 274 -73 196 -77 205 -138 271 l-62 69 73 159 c42 91 79
159 88 159 8 1 22 2 31 3 12 1 40 45 88 141 39 77 74 140 78 140 4 0 25 -21
46 -46 l39 -46 -78 -159 -78 -158 33 -38 c41 -47 54 -55 75 -47 9 4 49 71 88
150 l72 144 53 -53 53 -54 -86 -158 -86 -158 73 -74 c40 -40 77 -73 83 -73 14
0 135 -122 135 -136 0 -6 50 -57 110 -114 61 -56 109 -107 108 -114 -3 -14 72
-106 87 -106 15 0 137 -138 131 -148 -3 -5 18 -32 47 -60 l52 -51 654 338 654
338 154 198 c85 109 168 214 184 233 25 29 28 37 17 47 -7 7 -197 180 -423
385 -225 206 -409 379 -409 386 1 10 299 473 738 1147 l58 88 50 -36 c27 -20
53 -34 56 -31 3 3 3 7 1 9 -2 1 -37 29 -77 60 -41 33 -77 55 -84 51 -6 -4 -8
-3 -5 3 10 15 -444 374 -645 511 -93 62 -168 117 -168 121 0 5 115 230 255
500 140 271 255 494 255 497 0 4 -889 598 -1321 882 l-215 142 -1319 -410
c-726 -226 -1321 -413 -1323 -414 -2 -2 -28 -149 -59 -327 -31 -178 -57 -325
-58 -327 -1 -1 -112 48 -246 111 l-244 113 -3 260 -2 260 70 11 c237 37 405
250 387 488 -13 176 -131 333 -294 395 -76 29 -207 36 -282 15z m4877 -1193
c3 -9 -848 -326 -855 -318 -3 2 2 16 10 31 12 24 57 43 387 164 206 76 375
142 377 147 1 5 -318 224 -709 487 l-713 479 -1190 -373 c-654 -204 -1225
-383 -1268 -396 -43 -13 -77 -28 -75 -33 2 -4 163 -148 359 -318 l356 -310
579 198 c318 109 580 197 581 196 2 -2 -12 -49 -30 -106 l-32 -104 -463 -159
-462 -159 -75 67 c-42 37 -78 65 -81 62 -4 -4 377 -341 548 -485 l28 -24 239
80 239 80 -10 -29 c-5 -16 -14 -32 -19 -35 -5 -3 -111 -43 -236 -89 l-228 -84
-30 28 c-16 15 -322 284 -680 597 -594 521 -779 678 -621 529 l60 -55 -154
-822 -155 -821 -40 -18 c-22 -10 -52 -20 -66 -24 l-27 -7 10 54 c14 82 13 81
47 63 19 -9 32 -11 36 -5 4 6 -10 17 -30 26 -32 13 -36 18 -31 42 3 15 42 234
86 486 44 253 82 461 84 464 3 2 13 -1 25 -7 13 -7 22 -8 26 -1 3 5 -5 15 -19
22 -14 6 -26 18 -26 27 1 45 109 624 119 634 6 6 599 194 1317 418 l1307 406
751 -498 c413 -274 752 -502 754 -507z m-1430 926 c42 -28 180 -121 306 -206
l230 -156 -84 -28 -84 -28 -58 41 c-32 22 -67 42 -78 44 -27 5 -594 -177 -614
-197 -8 -8 -25 -46 -38 -83 -13 -38 -32 -73 -43 -80 -11 -7 -118 -43 -237 -81
-120 -38 -218 -73 -218 -79 1 -5 23 -28 50 -49 28 -22 47 -42 44 -45 -3 -3
-253 -88 -555 -187 l-550 -182 -325 283 c-179 156 -325 287 -324 292 0 4 562
184 1248 399 686 216 1248 392 1250 393 2 1 38 -22 80 -51z m480 -539 c136
-94 251 -175 255 -179 8 -7 -522 -190 -550 -190 -11 0 -111 70 -413 289 l-104
76 264 86 c146 48 273 88 283 88 9 1 128 -76 265 -170z m80 155 c-3 -2 -37
-17 -78 -34 -49 -20 -77 -27 -84 -20 -13 13 -12 14 74 42 64 21 102 27 88 12z
m32 -39 c0 -2 -11 -30 -25 -60 l-24 -56 -46 31 c-26 18 -45 34 -42 36 5 6 120
53 130 54 4 0 7 -2 7 -5z m388 -235 c193 -129 351 -237 352 -240 0 -3 -57 -26
-126 -52 l-126 -46 -142 95 c-171 116 -160 107 -147 130 19 37 0 60 -119 143
l-118 81 15 37 c26 63 44 93 52 90 5 -2 166 -109 359 -238z m-1093 -88 c127
-91 238 -173 248 -182 18 -16 14 -28 -103 -316 -67 -164 -123 -300 -125 -302
-3 -4 -480 390 -480 397 0 3 47 135 104 293 69 193 107 286 115 281 6 -4 115
-81 241 -171z m-350 16 c-3 -8 -77 -36 -181 -68 -96 -29 -177 -57 -179 -61 -3
-4 18 -27 45 -52 l50 -45 -62 -21 c-35 -12 -296 -101 -581 -198 -389 -132
-521 -173 -529 -165 -7 7 -10 14 -7 16 2 2 253 86 557 186 303 100 552 185
552 189 0 4 -22 25 -50 47 -27 21 -49 42 -50 45 0 4 87 35 193 68 105 34 203
66 217 70 30 10 32 9 25 -11z m-45 -125 c-17 -49 -35 -94 -39 -101 -4 -7 -46
-25 -94 -41 -88 -30 -95 -29 -77 14 6 16 -2 30 -42 71 l-49 51 163 50 c90 28
165 49 167 47 1 -1 -11 -43 -29 -91z m1251 70 c-5 -10 -66 -142 -136 -293 -70
-151 -132 -281 -139 -288 -7 -6 -126 -50 -264 -96 -227 -76 -252 -83 -246 -64
3 12 57 145 119 297 l112 276 269 92 c148 50 275 92 282 92 9 1 10 -4 3 -16z
m189 -127 c83 -55 129 -91 120 -94 -8 -3 -109 -40 -225 -82 -115 -43 -212 -76
-213 -75 -2 2 20 55 48 117 29 62 66 141 82 176 19 42 33 60 41 56 7 -4 73
-48 147 -98z m-3396 -50 l39 -34 -169 -826 c-93 -454 -172 -826 -175 -826 -10
0 -109 129 -109 142 0 7 68 378 152 825 l152 812 35 -30 c20 -16 54 -44 75
-63z m3843 -108 c-35 -68 -149 -286 -252 -486 -142 -274 -191 -362 -202 -358
-8 4 -105 67 -215 142 l-199 136 -92 -75 c-51 -42 -93 -74 -95 -72 -6 5 230
505 242 513 14 9 858 321 869 322 5 0 -20 -55 -56 -122z m-1941 65 c-4 -10
-61 -171 -129 -358 l-122 -340 -242 -82 -241 -81 -201 175 c-111 97 -199 178
-196 182 4 3 210 76 458 161 l451 156 25 75 24 76 76 26 c93 31 104 32 97 10z
m-1742 -96 l38 -34 -173 -781 -174 -782 -62 0 c-49 0 -64 4 -71 18 -6 11 12
117 54 322 35 168 111 540 170 827 l107 522 36 -29 c20 -17 53 -45 75 -63z
m160 -140 l38 -34 -152 -629 c-83 -346 -161 -666 -172 -711 l-20 -83 -74 0
c-41 0 -74 3 -74 7 0 4 77 350 170 769 94 419 170 765 170 769 0 7 40 -25 114
-88z m1799 -149 c127 -105 233 -192 235 -193 2 -2 -167 -425 -174 -433 -3 -5
-459 358 -463 370 -5 13 152 448 161 448 5 0 113 -86 241 -192z m-1654 20 l52
-47 -166 -638 c-91 -350 -168 -639 -169 -641 -2 -1 -37 -2 -78 0 l-75 3 103
430 c57 237 134 553 170 702 l66 273 23 -18 c12 -10 46 -39 74 -64z m2352
-256 l-92 -198 -245 -93 c-135 -52 -247 -92 -249 -89 -3 3 32 96 78 208 l83
203 254 86 c140 48 257 86 259 84 2 -1 -38 -92 -88 -201z m-2183 108 l42 -38
-158 -568 -159 -569 -82 -3 c-76 -3 -82 -1 -77 15 3 10 73 279 156 598 83 319
155 597 161 618 l10 38 32 -27 c18 -15 51 -44 75 -64z m159 -140 l43 -37 -121
-404 c-66 -222 -134 -448 -150 -501 l-30 -98 -79 0 c-44 0 -80 4 -80 9 0 10
281 1026 301 1089 l11 32 31 -26 c18 -15 51 -44 74 -64z m2193 -7 c0 -5 -52
-50 -115 -102 -64 -51 -114 -96 -111 -98 3 -3 57 38 121 91 65 53 121 96 125
96 9 0 34 -29 29 -34 -2 -1 -79 -64 -171 -139 -92 -76 -169 -137 -172 -137 -8
0 32 80 49 100 14 15 15 19 15 44 0 14 205 186 221 186 5 0 9 -3 9 -7z m-1045
-213 c121 -95 221 -174 222 -174 5 -3 -144 -358 -150 -359 -4 -1 -106 81 -227
182 -162 136 -219 189 -215 200 4 9 29 79 57 156 72 200 67 188 81 178 6 -6
111 -88 232 -183z m-988 80 l42 -36 -105 -330 c-57 -181 -120 -380 -140 -442
-32 -102 -37 -111 -54 -102 -10 5 -46 10 -79 10 -38 0 -61 4 -61 11 0 9 268
919 285 967 5 14 16 6 112 -78z m2122 67 c8 -10 4 -20 -17 -39 -36 -33 -403
-332 -420 -342 -8 -5 -3 13 11 40 20 39 61 78 208 201 101 83 189 152 195 152
6 1 17 -5 23 -12z m45 -33 c9 -3 16 -10 16 -14 0 -6 -451 -380 -559 -464 -7
-6 -2 12 12 41 23 44 61 79 264 247 131 107 241 195 245 195 3 1 13 -2 22 -5z
m66 -53 c0 -6 -410 -346 -634 -526 l-50 -40 30 55 c25 48 66 85 324 296 239
196 298 240 313 233 9 -6 17 -13 17 -18z m-1609 -88 c-292 -816 -875 -2430
-881 -2436 -11 -13 -232 242 -225 261 3 10 158 486 344 1060 186 574 341 1046
344 1049 4 4 422 163 454 172 2 1 -15 -47 -36 -106z m1646 80 c-4 -3 -2 -12 5
-20 7 -8 8 -17 2 -23 -28 -27 -769 -628 -772 -626 -1 2 7 23 19 47 17 35 69
84 266 244 361 295 474 385 480 385 4 0 3 -3 0 -7z m-2101 -124 l21 -24 -341
-1047 c-188 -576 -344 -1050 -347 -1053 -3 -3 -32 23 -63 59 l-56 64 86 269
c47 147 109 342 138 433 51 162 53 165 82 168 49 5 84 23 99 53 21 39 21 239
0 278 -14 27 -8 49 120 452 74 233 137 430 140 437 5 14 75 -38 121 -89z
m2855 -411 c132 -104 237 -193 234 -198 -3 -5 11 -18 30 -30 21 -13 32 -26 28
-33 -4 -7 -87 -136 -185 -287 l-178 -275 -217 -102 c-119 -57 -220 -103 -224
-103 -4 0 -5 33 -2 73 10 128 -33 255 -116 345 l-39 43 201 162 c404 327 447
359 462 354 8 -4 62 -38 121 -77 58 -40 108 -70 110 -67 2 2 -49 39 -113 82
-65 43 -257 184 -426 312 l-308 235 -32 -25 c-18 -14 -246 -200 -507 -415
-261 -214 -476 -388 -477 -387 -2 1 5 21 15 44 15 36 79 93 471 414 250 204
461 376 469 381 8 5 18 4 25 -3 6 -6 16 -11 22 -11 5 1 -8 17 -30 36 -102 92
455 -300 666 -468z m-701 477 c7 -9 11 -17 9 -19 -25 -25 -885 -723 -887 -721
-2 2 7 23 20 48 19 37 95 104 428 376 223 182 408 331 411 331 4 0 12 -7 19
-15z m-582 -4 c-1 -5 -38 -85 -82 -179 l-78 -170 -172 -65 c-94 -37 -201 -78
-238 -91 l-68 -26 17 43 c9 23 42 103 73 177 l56 135 239 92 c132 51 244 93
248 93 5 0 7 -4 5 -9z m684 -73 c14 -11 -59 -75 -534 -463 -303 -247 -555
-451 -559 -453 -5 -2 -1 16 9 39 16 37 86 98 533 465 283 232 519 423 525 423
5 1 17 -5 26 -11z m55 -44 c3 -10 -1161 -973 -1187 -982 -19 -7 -10 37 13 62
12 15 272 231 577 481 359 294 562 454 574 452 11 -1 21 -7 23 -13z m43 -30
c11 -12 10 -18 -6 -33 -51 -48 -1174 -961 -1182 -961 -5 0 -15 6 -21 14 -10
12 93 100 586 505 329 269 601 490 604 491 4 0 12 -7 19 -16z m50 -40 c11 -12
11 -17 -1 -28 -61 -58 -1184 -966 -1194 -966 -7 0 -17 6 -23 13 -8 9 138 133
591 504 331 271 605 493 608 493 4 0 12 -7 19 -16z m-6823 -45 c41 -23 80 -38
88 -35 8 3 17 21 21 40 6 35 8 36 50 36 l44 0 0 -62 c-1 -141 -26 -187 -104
-195 -39 -5 -58 1 -137 38 -88 42 -92 43 -105 24 -8 -10 -14 -27 -14 -37 0
-15 -8 -18 -46 -18 l-47 0 6 89 c6 102 15 124 60 152 44 27 92 19 184 -32z
m5073 -149 c118 -99 216 -184 218 -189 3 -9 -125 -331 -137 -343 -10 -11 -427
369 -423 385 10 39 117 327 122 327 3 0 102 -81 220 -180z m1802 156 c15 -11
-45 -64 -544 -472 -309 -252 -583 -476 -609 -496 -44 -36 -47 -37 -62 -20 -15
17 20 48 586 510 331 270 604 492 607 492 3 -1 13 -7 22 -14z m51 -38 c15 -11
-39 -59 -425 -373 -242 -198 -515 -422 -606 -497 -139 -114 -169 -135 -185
-127 -10 6 -17 15 -15 20 4 11 1198 989 1207 989 4 0 15 -6 24 -12z m73 -54
c19 -15 34 -30 34 -35 0 -4 -157 -137 -350 -294 -325 -266 -352 -286 -385
-283 -33 3 -22 13 331 302 201 164 363 300 361 303 -3 2 -173 -133 -378 -301
-309 -253 -382 -308 -423 -320 -28 -8 -52 -14 -53 -12 -6 5 802 664 815 665 7
1 29 -11 48 -25z m74 -60 c11 -12 11 -17 -1 -29 -8 -7 -158 -131 -334 -275
-254 -207 -325 -260 -345 -258 -14 2 -24 7 -24 12 2 9 674 565 685 565 4 1 12
-6 19 -15z m-1273 -36 c-24 -59 -141 -305 -148 -312 -9 -10 -451 -197 -455
-193 -4 4 131 326 141 336 10 9 441 179 459 180 4 1 6 -5 3 -11z m1325 -2 c16
-12 -16 -41 -303 -276 -177 -144 -329 -265 -339 -267 -10 -3 -25 -1 -34 4 -12
7 58 69 317 281 182 149 334 272 337 271 3 0 13 -6 22 -13z m51 -39 c16 -11
-19 -43 -304 -275 -275 -226 -325 -263 -346 -257 -13 3 -23 9 -21 14 4 10 640
531 649 531 3 0 13 -6 22 -13z m55 -40 c11 -13 -33 -50 -485 -415 -139 -112
-155 -122 -172 -110 -18 13 6 34 301 276 177 144 326 262 333 262 7 0 17 -6
23 -13z m-7456 -25 c3 -12 -1 -18 -12 -18 -11 0 -15 6 -12 18 2 10 8 18 12 18
4 0 10 -8 12 -18z m47 2 c4 3 8 -1 8 -8 0 -7 -6 -13 -14 -13 -7 0 -13 10 -12
21 0 12 3 15 6 8 2 -6 8 -10 12 -8z m54 -4 c-3 -11 -7 -20 -9 -20 -2 0 -4 9
-4 20 0 11 4 20 9 20 5 0 7 -9 4 -20z m111 12 c-6 -4 -14 -14 -17 -22 -4 -10
-6 -8 -6 8 -1 15 5 22 17 22 10 0 13 -3 6 -8z m56 -1 c0 -5 -7 -14 -15 -21
-13 -10 -15 -9 -15 9 0 12 6 21 15 21 8 0 15 -4 15 -9z m52 -9 c3 -12 -1 -18
-12 -18 -11 0 -15 6 -12 18 2 10 8 18 12 18 4 0 10 -8 12 -18z m46 4 c-7 -8
-15 -12 -17 -11 -5 6 10 25 20 25 5 0 4 -6 -3 -14z m49 -6 c1 -11 -2 -20 -8
-20 -5 0 -9 9 -9 20 0 11 4 20 8 20 4 0 8 -9 9 -20z m4758 -270 c132 -120 180
-169 178 -184 -1 -12 -27 -83 -58 -158 l-57 -137 -204 186 c-112 102 -204 190
-204 195 0 11 98 287 107 301 3 5 17 -2 32 -16 14 -13 107 -98 206 -187z
m-4745 150 l0 -50 -230 0 -230 0 0 50 0 50 230 0 230 0 0 -50z m2713 -89 c31
-38 57 -72 57 -75 0 -3 -22 -6 -50 -6 -85 0 -130 -38 -130 -109 0 -45 -34 -52
-71 -14 l-29 28 18 99 18 98 59 23 c33 13 62 24 66 24 3 1 31 -30 62 -68z
m-207 -18 c-4 -21 -11 -62 -17 -91 l-11 -52 -46 51 c-26 29 -50 57 -54 64 -7
11 40 34 131 64 2 0 0 -16 -3 -36z m2853 -178 l-64 -137 -215 -99 c-118 -54
-218 -98 -222 -99 -6 0 90 245 110 279 7 12 443 201 451 195 2 -2 -25 -64 -60
-139z m-3049 128 c0 -5 -9 -66 -20 -137 -19 -121 -28 -145 -55 -146 -11 0
-175 185 -175 197 0 8 212 89 238 92 6 0 12 -2 12 -6z m104 -77 c54 -61 65
-87 48 -113 -8 -13 -142 -67 -148 -60 -7 6 30 237 37 237 4 0 32 -29 63 -64z
m-420 -68 c-3 -24 -11 -88 -17 -142 -12 -98 -13 -100 -43 -112 l-31 -13 -81
99 c-45 55 -82 104 -82 108 0 7 223 96 252 101 4 0 5 -18 2 -41z m121 -67 c37
-44 66 -83 64 -88 -2 -7 -171 -76 -174 -70 -5 10 29 246 35 242 5 -3 38 -41
75 -84z m812 54 c9 -19 22 -35 28 -35 6 0 19 16 29 35 11 19 25 35 33 35 19 0
16 -9 -17 -65 -16 -27 -30 -62 -30 -77 0 -18 -5 -28 -15 -28 -10 0 -15 10 -15
28 0 15 -14 51 -30 81 -35 63 -34 61 -15 61 9 0 23 -16 32 -35z m237 -48 c28
-74 29 -111 2 -74 -17 22 -94 24 -102 2 -5 -13 -34 -22 -34 -10 0 2 10 30 21
62 12 32 26 68 30 81 7 17 15 22 31 20 18 -2 28 -19 52 -81z m174 67 c26 -18
30 -65 8 -87 -13 -13 -13 -17 -1 -33 18 -24 19 -34 1 -34 -7 0 -21 11 -30 25
-10 16 -26 25 -41 25 -20 0 -25 -5 -25 -25 0 -14 -4 -25 -10 -25 -6 0 -10 35
-10 85 l0 85 43 0 c23 0 53 -7 65 -16z m171 1 c32 -16 41 -33 41 -78 0 -50
-33 -77 -97 -77 l-53 0 0 78 c0 43 3 82 7 85 12 12 73 7 102 -8z m1119 -220
c89 -81 162 -151 162 -154 0 -20 -108 -266 -116 -263 -5 1 -96 80 -202 175
-160 143 -192 176 -187 194 3 11 26 78 51 148 l47 127 41 -40 c22 -21 114
-105 204 -187z m-2136 173 c-9 -9 -12 -7 -12 12 0 19 3 21 12 12 9 -9 9 -15 0
-24z m98 -68 c0 -71 18 -111 56 -128 14 -7 25 -15 22 -17 -2 -3 -51 -22 -109
-44 -57 -22 -111 -42 -120 -46 -14 -5 -14 8 6 120 12 69 25 128 28 131 6 6 99
43 110 44 4 0 7 -27 7 -60z m-915 -12 c-3 -24 -10 -87 -15 -142 -5 -54 -11
-100 -13 -102 -2 -3 -29 -2 -60 2 l-55 7 -71 88 -70 88 42 15 c23 9 83 31 132
50 50 19 96 34 102 35 9 1 11 -12 8 -41z m124 -76 c34 -41 61 -77 61 -82 0 -4
-8 -10 -17 -13 -10 -3 -49 -17 -87 -31 l-68 -27 6 53 c3 29 9 86 12 126 8 84
0 86 93 -26z m647 56 c-21 -137 -39 -218 -50 -218 -6 0 -33 25 -60 56 -49 55
-49 56 -40 102 9 46 9 47 79 74 39 15 72 27 74 28 2 0 1 -19 -3 -42z m-186
-50 c0 -16 -3 -19 -11 -11 -6 6 -8 16 -5 22 11 17 16 13 16 -11z m3031 -44
c-16 -33 -30 -56 -31 -52 0 11 53 118 58 114 2 -2 -10 -30 -27 -62z m-77 -61
c-31 -65 -60 -130 -66 -144 -8 -23 -38 -39 -210 -110 -111 -46 -205 -85 -209
-87 -7 -3 93 253 102 263 6 6 424 195 431 195 4 0 -18 -53 -48 -117z m52 -64
c-42 -89 -76 -169 -76 -178 0 -8 30 -46 67 -83 37 -37 64 -71 60 -75 -4 -4
-42 27 -83 68 l-75 76 71 154 c40 85 79 170 88 189 8 19 17 30 19 23 2 -7 -30
-85 -71 -174z m423 117 c-37 -68 -113 -134 -134 -116 -8 7 -15 16 -15 20 0 6
169 150 176 150 1 0 -11 -24 -27 -54z m-4349 -26 c0 -63 -2 -70 -20 -70 -11 0
-56 -13 -102 -30 -45 -16 -83 -30 -84 -30 -8 0 -76 91 -72 96 4 3 263 101 276
104 1 0 2 -31 2 -70z m856 43 c-3 -16 -10 -64 -16 -108 -6 -44 -15 -89 -19
-100 -9 -23 -80 -53 -90 -38 -3 5 -23 30 -43 55 -25 29 -38 55 -38 74 0 63 8
72 99 108 108 43 114 44 107 9z m3263 -67 l34 -36 -78 -162 c-43 -90 -81 -166
-84 -170 -4 -4 -36 21 -71 57 l-63 64 78 170 79 170 35 -29 c20 -15 51 -44 70
-64z m-3212 23 c-5 -44 -4 -49 13 -49 15 0 20 7 20 27 0 27 0 27 45 -17 25
-24 45 -47 45 -50 0 -10 -158 -76 -164 -68 -8 8 29 216 37 211 5 -3 7 -28 4
-54z m-808 -26 l43 -53 -51 0 -51 0 0 62 c0 34 4 58 8 53 5 -6 28 -34 51 -62z
m1298 26 c-3 -12 -16 -78 -29 -147 l-23 -125 -53 -24 c-29 -12 -59 -23 -66
-23 -13 0 -176 192 -176 207 0 8 314 131 339 132 9 1 11 -6 8 -20z m349 -16
c-18 -98 -24 -110 -66 -127 -22 -9 -42 -16 -44 -16 -2 0 -41 41 -86 90 l-82
90 142 0 142 0 -6 -37z m94 -13 c0 -48 -1 -50 -37 -65 -20 -8 -37 -14 -38 -13
-1 2 5 31 13 66 12 55 16 62 38 62 22 0 24 -4 24 -50z m134 31 c10 -10 14 -21
9 -24 -8 -5 -116 -47 -120 -47 -2 0 -3 20 -3 45 l0 45 48 0 c35 0 54 -5 66
-19z m88 7 c-17 -8 -26 -8 -34 0 -9 9 -4 12 23 11 32 0 33 -1 11 -11z m282
-14 c-17 -65 -73 -229 -79 -227 -4 1 -43 40 -87 87 -74 80 -79 88 -73 118 4
18 9 36 12 41 2 4 56 7 119 7 l114 0 -6 -26z m-754 -165 c0 -4 -45 -25 -100
-47 -79 -32 -100 -37 -100 -25 0 8 10 67 22 130 l21 116 78 -84 c43 -46 78
-87 79 -90z m475 134 c-6 -26 -21 -42 -37 -43 -4 0 -2 15 3 32 5 18 9 34 9 35
0 2 7 3 16 3 13 0 15 -6 9 -27z m-1445 -4 c0 -18 -2 -19 -15 -9 -15 12 -12 30
6 30 5 0 9 -10 9 -21z m-40 -77 c-19 -1 -71 1 -115 5 l-80 8 80 31 80 31 35
-36 35 -36 -35 -3z m1405 51 c-8 -34 0 -28 -68 -58 l-57 -25 0 33 c0 29 4 34
53 54 72 29 81 29 72 -4z m-2315 -46 l0 -64 -110 -40 -110 -40 -35 43 c-19 23
-35 46 -35 51 0 6 253 105 288 112 1 1 2 -28 2 -62z m3478 -137 c95 -85 172
-159 172 -164 0 -12 -100 -259 -109 -269 -6 -6 -369 315 -385 342 -3 5 17 72
45 150 l52 141 26 -23 c15 -12 105 -92 199 -177z m738 143 c-14 -26 -25 -45
-26 -41 0 12 43 98 48 94 2 -2 -8 -26 -22 -53z m424 21 c-8 -33 -23 -53 -41
-54 -8 0 -33 30 -28 33 2 2 19 15 37 30 19 15 35 27 37 27 1 0 -1 -16 -5 -36z
m-104 -15 l33 -32 -95 -188 c-52 -104 -94 -193 -94 -198 0 -5 40 -45 89 -90
l89 -82 69 131 c37 71 71 130 74 130 3 0 11 -10 18 -22 10 -21 -12 -67 -225
-468 -155 -292 -246 -453 -265 -468 -16 -13 -26 -29 -23 -37 5 -12 -172 -358
-209 -408 -12 -17 -14 -16 -37 8 l-24 26 47 87 c26 48 64 120 85 160 l36 72
-69 70 c-38 39 -72 70 -75 70 -4 0 -42 -73 -85 -161 l-79 -162 -33 37 -33 36
75 150 c41 82 75 158 75 167 -1 18 -102 133 -117 133 -5 0 -43 -70 -86 -156
-43 -86 -81 -154 -84 -151 -4 5 177 409 234 521 l15 29 64 -64 c35 -34 66 -61
68 -58 7 7 176 369 176 377 0 3 -29 36 -64 72 l-64 65 76 163 c41 89 77 160
79 158 3 -2 -5 -22 -16 -45 -12 -22 -21 -46 -21 -54 0 -13 151 -167 164 -167
5 0 79 148 157 318 16 34 32 62 36 62 4 0 22 -14 39 -31z m-3991 -4 c94 -8
216 -18 273 -21 56 -4 104 -10 107 -13 3 -7 -1100 -426 -1120 -426 -5 0 -12
-2 -15 -6 -3 -3 -27 -13 -55 -23 -50 -18 -56 -20 -130 -50 -22 -9 -476 -180
-1010 -381 -902 -340 -971 -364 -983 -348 -17 23 -134 254 -130 257 2 2 280
104 618 228 338 125 623 229 633 233 13 6 17 2 17 -19 0 -14 5 -26 10 -26 6 0
10 13 10 29 0 28 4 30 153 85 1302 480 1372 505 1412 500 22 -2 117 -11 210
-19z m1947 -77 c73 -79 94 -107 89 -122 -5 -12 -58 -39 -165 -83 -87 -35 -160
-63 -161 -61 -2 2 18 81 44 177 47 170 54 186 92 190 4 1 49 -45 101 -101z
m-2422 32 c-24 -15 -28 -12 -32 25 l-4 36 25 -26 c22 -22 24 -27 11 -35z
m2100 21 c0 -24 -6 -31 -46 -46 -25 -9 -47 -16 -48 -14 -2 2 1 18 5 34 6 20
18 35 36 42 45 18 53 15 53 -16z m3788 -3 c-273 -422 -402 -618 -407 -618 -4
0 -94 22 -200 50 l-193 50 -92 -72 c-50 -40 -245 -195 -433 -345 -189 -150
-343 -270 -343 -265 1 4 69 135 153 291 l152 284 158 74 158 74 63 -15 c214
-54 435 48 529 244 l31 66 216 102 c118 56 217 102 219 102 2 0 -3 -10 -11
-22z m-3658 7 c0 -18 -94 -342 -101 -349 -5 -6 -9 54 -9 151 l0 160 48 21 c48
22 62 26 62 17z m-996 -141 c-9 -71 -20 -138 -25 -150 -5 -14 -31 -29 -84 -49
-42 -15 -77 -26 -78 -24 -7 10 -96 243 -94 245 6 6 292 112 295 109 2 -1 -5
-61 -14 -131z m3210 -57 c-78 -155 -101 -193 -112 -183 -7 8 179 366 188 361
5 -3 -29 -83 -76 -178z m-3350 -319 c177 -447 277 -702 439 -1128 51 -134 54
-146 38 -161 -9 -9 -19 -14 -22 -10 -15 15 -689 1766 -685 1778 18 45 42 -6
230 -479z m876 480 c0 -30 -13 -56 -28 -61 -10 -3 -25 -8 -34 -12 -14 -6 -18
-2 -18 16 0 32 10 46 40 58 34 13 40 13 40 -1z m-604 -84 c38 -48 67 -89 65
-93 -5 -8 -171 -74 -175 -70 -6 6 27 249 34 249 4 0 38 -39 76 -86z m-174
-820 c323 -829 345 -890 327 -898 -12 -6 -23 -6 -28 0 -5 5 -163 407 -351 892
-279 719 -341 885 -329 893 8 5 19 7 24 6 6 -2 166 -404 357 -893z m908 738
l0 -158 -143 -57 c-78 -31 -145 -57 -148 -57 -9 0 67 331 78 340 4 4 24 13 43
20 19 7 58 23 85 35 42 19 71 31 83 34 1 1 2 -70 2 -157z m2466 82 c6 -39 21
-92 33 -119 l21 -48 -57 -108 c-31 -60 -60 -109 -63 -109 -3 1 -34 27 -70 60
l-65 59 85 171 c46 93 89 169 94 167 6 -2 15 -35 22 -73z m-4986 3 l0 -63
-102 -37 c-57 -20 -108 -37 -114 -37 -15 0 -80 93 -68 97 73 29 271 102 277
102 4 1 7 -27 7 -62z m1552 -840 c311 -800 345 -893 330 -904 -9 -7 -19 -13
-22 -13 -3 0 -163 403 -355 896 -353 909 -355 914 -310 914 6 0 166 -402 357
-893z m-176 856 c-4 -4 -11 -1 -16 7 -16 25 -11 35 7 17 9 -9 13 -20 9 -24z
m896 7 c-6 -39 -12 -43 -127 -90 l-97 -40 7 38 c4 20 8 37 8 38 9 4 203 82
208 83 3 1 4 -12 1 -29z m-2188 -51 c-2 -4 -13 -9 -24 -12 -18 -5 -20 0 -20
36 l0 42 24 -30 c13 -16 22 -33 20 -36z m1404 -823 c189 -485 344 -891 345
-902 1 -12 -5 -20 -18 -22 -18 -2 -59 97 -367 890 -192 492 -348 896 -348 900
0 5 14 11 40 17 3 0 160 -397 348 -883z m-263 504 c70 -179 130 -332 133 -340
3 -8 -17 13 -45 46 -46 55 -63 90 -158 335 -59 151 -109 280 -112 286 -3 7 6
17 18 22 18 6 26 5 31 -8 3 -9 63 -162 133 -341z m3206 298 c-11 -24 -39 -85
-63 -136 l-43 -93 -195 -84 c-107 -46 -195 -83 -196 -82 -5 6 107 263 118 270
10 7 386 165 395 167 1 0 -6 -19 -16 -42z m-3398 20 c74 -185 206 -532 203
-536 -3 -2 -18 5 -33 16 -23 16 -47 68 -125 268 -95 244 -99 263 -62 264 7 0
14 -6 17 -12z m9 -193 c38 -99 80 -208 93 -242 l24 -63 -31 13 c-29 12 -37 29
-119 237 -75 195 -85 226 -71 232 10 3 21 6 25 4 5 -1 40 -82 79 -181z m1197
103 c-10 -46 -26 -119 -35 -163 -9 -44 -21 -85 -25 -91 -11 -14 -327 -139
-335 -132 -5 5 26 229 41 296 4 16 22 30 62 48 31 13 64 23 73 21 8 -1 20 3
25 10 9 11 188 91 206 93 4 0 -1 -37 -12 -82z m-224 40 c-4 -18 -12 -38 -19
-44 -12 -12 -97 -47 -101 -42 -2 2 0 19 4 38 6 30 13 37 61 57 30 12 56 22 58
23 2 0 1 -15 -3 -32z m-1019 -198 c46 -118 81 -216 79 -218 -2 -3 -15 -2 -28
2 -20 5 -35 34 -100 204 -42 109 -77 203 -77 209 0 12 19 23 34 19 4 -1 46
-98 92 -216z m-1338 149 l-3 -61 -119 -44 c-66 -24 -120 -43 -121 -41 -1 1
-16 24 -34 50 -18 27 -31 50 -29 51 8 8 275 104 291 105 16 1 18 -7 15 -60z
m1252 -99 c29 -74 63 -163 76 -197 l24 -63 -28 0 c-26 0 -30 8 -99 189 -40
103 -73 193 -73 199 0 12 31 22 41 13 4 -3 30 -67 59 -141z m-1176 68 c-10
-16 -32 -8 -38 15 -12 45 -6 52 19 23 13 -17 22 -33 19 -38z m3161 -15 c-14
-43 -51 -159 -83 -258 l-58 -179 204 -231 c113 -126 214 -240 225 -252 l20
-23 -119 -56 c-192 -90 -204 -95 -214 -89 -5 3 -46 51 -91 105 -45 55 -86 100
-93 100 -6 0 -71 -28 -144 -62 -131 -61 -133 -62 -151 -42 -47 50 -532 636
-529 639 7 7 583 235 594 235 7 0 24 -14 38 -31 25 -29 26 -35 26 -160 0 -163
18 -174 22 -13 l3 115 99 -111 c54 -61 101 -109 103 -106 3 3 -18 31 -46 62
-41 44 -50 61 -45 78 4 11 24 79 45 150 21 71 41 131 44 135 6 6 155 69 167
70 3 1 -4 -34 -17 -76z m-2033 -106 c37 -94 70 -180 74 -190 6 -16 2 -18 -21
-15 -26 3 -32 14 -97 181 -38 98 -66 182 -63 187 4 6 14 10 23 10 13 0 34 -44
84 -173z m998 140 c0 -37 -19 -52 -112 -90 l-88 -36 0 27 c0 42 12 53 97 88
95 39 103 40 103 11z m-1053 -169 c67 -175 70 -183 50 -191 -11 -4 -23 -4 -27
0 -4 4 -37 86 -74 182 -67 174 -69 190 -30 191 5 0 42 -82 81 -182z m2870 1
c104 -94 189 -175 191 -179 4 -10 -105 -281 -118 -294 -6 -6 -81 62 -191 170
l-181 180 52 147 c29 81 54 147 56 147 2 0 88 -77 191 -171z m-2930 -21 c68
-176 70 -183 50 -191 -11 -4 -23 -4 -27 0 -4 4 -37 86 -74 182 -67 174 -70
190 -30 191 6 0 42 -82 81 -182z m-59 -20 c64 -166 69 -184 55 -195 -9 -7 -19
-13 -22 -13 -5 0 -95 224 -146 362 -6 15 1 20 36 27 3 0 38 -81 77 -181z
m2032 161 c0 -17 -72 -253 -80 -262 -12 -13 -100 97 -100 125 0 62 18 85 93
116 83 35 87 36 87 21z m-2085 -198 c67 -171 71 -197 38 -208 -5 -2 -38 70
-73 159 -35 90 -69 178 -77 196 -13 31 -12 33 9 41 28 10 20 25 103 -188z
m-1331 173 c3 -9 6 -35 6 -59 0 -47 9 -41 -123 -89 l-68 -25 3 66 3 66 75 28
c89 33 96 34 104 13z m1275 -204 c63 -161 71 -187 60 -207 -7 -13 -15 -23 -18
-23 -3 0 -42 94 -87 209 -79 204 -80 210 -60 219 14 6 23 6 27 -2 4 -6 39 -94
78 -196z m1045 173 c-4 -21 -7 -38 -8 -39 0 0 -25 -11 -55 -23 -52 -22 -55
-22 -68 -5 -25 35 -15 50 50 76 86 36 89 35 81 -9z m222 20 c-2 -10 -15 -83
-27 -163 l-22 -146 -81 -31 c-45 -18 -87 -33 -94 -35 -9 -2 -31 40 -62 117
-27 66 -49 125 -50 131 0 7 48 31 106 54 58 23 129 53 158 65 62 29 79 31 72
8z m-2476 -67 c-13 -13 -17 -7 -25 29 l-7 30 21 -25 c12 -15 16 -29 11 -34z
m1156 -161 c77 -198 80 -211 66 -233 -12 -18 -17 -20 -23 -10 -25 45 -169 434
-164 446 3 7 13 12 22 10 12 -2 41 -64 99 -213z m4681 118 c18 -10 33 -20 33
-23 0 -6 -271 -133 -275 -128 -2 2 26 58 61 124 l64 121 42 -38 c23 -21 57
-46 75 -56z m-4735 -154 c49 -123 88 -231 88 -239 -1 -8 -6 -25 -13 -37 -11
-20 -22 4 -111 233 -82 210 -97 257 -85 265 8 5 19 7 24 6 6 -2 49 -105 97
-228z m2048 196 c0 -19 -2 -35 -4 -35 -2 0 -11 12 -21 26 -14 22 -15 28 -4 35
24 15 29 10 29 -26z m-3420 -40 c0 -61 -1 -65 -25 -71 -14 -4 -27 -5 -29 -3
-12 14 -56 90 -56 97 0 7 77 38 103 41 4 1 7 -28 7 -64z m1327 -213 c80 -210
101 -274 96 -299 -3 -18 -9 -33 -13 -33 -6 0 -230 565 -230 582 0 5 15 12 40
17 3 0 51 -120 107 -267z m4420 205 c36 -35 64 -70 61 -77 -3 -9 -32 13 -84
63 -55 53 -73 76 -60 77 10 0 48 -29 83 -63z m-415 -4 l56 -58 -76 -163 -76
-163 -58 58 c-32 31 -58 63 -58 69 0 7 23 61 51 120 28 60 59 128 70 152 10
23 22 42 26 42 5 0 34 -26 65 -57z m-4045 -271 c91 -237 123 -333 127 -378 7
-83 38 -162 90 -231 60 -81 346 -813 346 -885 0 -27 -4 -48 -8 -48 -5 0 -169
413 -365 918 -324 833 -355 918 -340 930 9 6 19 12 22 12 3 0 61 -143 128
-318z m-1447 226 l0 -63 -123 -44 c-67 -25 -126 -46 -132 -48 -11 -4 -70 95
-62 104 8 7 289 111 305 112 8 1 12 -18 12 -61z m1273 50 c94 -238 707 -1821
707 -1827 0 -12 -32 -23 -41 -14 -4 4 -167 420 -363 923 -259 666 -352 916
-343 922 18 11 34 10 40 -4z m4078 -10 c-5 -13 -35 -78 -67 -146 l-59 -123
-165 -75 c-91 -42 -175 -80 -187 -84 -19 -8 -16 4 33 123 29 73 57 138 62 146
6 11 199 100 389 180 1 1 -1 -9 -6 -21z m-4126 -40 c15 -37 599 -1537 675
-1734 l27 -72 -22 -10 c-22 -10 -29 7 -383 916 -257 660 -357 929 -349 934 24
15 35 7 52 -34z m286 -907 c198 -508 358 -925 357 -926 -2 -2 -12 -5 -24 -9
-19 -6 -46 59 -381 921 -310 797 -359 929 -345 935 9 3 21 6 25 5 5 -2 170
-418 368 -926z m-1441 878 c0 -4 -7 -9 -15 -13 -11 -4 -15 2 -15 26 0 30 1 31
15 12 8 -10 15 -22 15 -25z m1384 -902 c196 -505 354 -923 351 -928 -4 -5 -14
-9 -24 -9 -13 0 -90 188 -374 918 -196 504 -357 922 -357 929 0 13 31 23 41
14 3 -3 166 -419 363 -924z m-60 -20 c196 -504 356 -921 356 -926 0 -12 -32
-23 -41 -14 -4 4 -168 422 -364 927 -338 867 -357 920 -339 933 10 7 21 10 25
6 3 -5 167 -421 363 -926z m5610 513 c236 -219 425 -401 424 -409 -3 -17 -460
-376 -500 -394 -16 -6 -28 -15 -28 -19 0 -4 -68 -60 -150 -124 -83 -64 -149
-119 -146 -121 3 -3 54 34 115 81 60 47 112 86 115 86 4 0 -10 -22 -30 -49
-29 -38 -57 -59 -127 -96 -49 -27 -87 -43 -83 -36 4 6 3 11 -3 11 -5 0 -12 -4
-15 -9 -3 -5 -31 -26 -61 -46 l-56 -37 -157 151 c-86 82 -273 266 -415 409
l-259 259 468 372 c257 204 470 370 474 369 4 -2 199 -181 434 -398z m373 -71
c226 -205 410 -375 408 -377 -1 -2 -73 7 -160 19 -134 19 -161 26 -189 48 -36
29 -836 772 -836 776 0 2 82 -18 182 -44 l183 -47 412 -375z m-6072 -386 c181
-467 343 -885 361 -929 l32 -82 -23 -10 c-22 -10 -29 5 -384 919 -199 511
-359 933 -356 939 26 42 40 11 370 -837z m-1682 697 c-4 -4 -64 -28 -133 -53
-69 -25 -132 -48 -140 -51 -11 -5 -23 9 -43 49 l-27 55 23 10 c12 6 90 34 172
64 l150 54 3 -60 c2 -34 -1 -64 -5 -68z m1655 -802 c361 -929 368 -947 326
-948 -6 0 -174 419 -373 931 -365 938 -369 948 -326 949 6 0 174 -419 373
-932z m3487 485 c-16 -37 -30 -70 -32 -72 -2 -3 -13 5 -26 17 -24 23 -67 23
-108 1 -20 -10 -32 -1 -144 112 l-123 124 46 128 46 128 185 -185 185 -185
-29 -68z m-3546 -505 c334 -861 361 -933 345 -945 -10 -7 -21 -10 -25 -6 -7 7
-729 1857 -729 1867 0 4 17 10 41 15 3 0 168 -419 368 -931z m-65 -7 c196
-505 360 -928 362 -938 7 -24 -26 -42 -39 -21 -5 7 -170 427 -367 933 -320
822 -357 921 -342 933 9 6 19 12 22 12 4 0 168 -413 364 -919z m-1454 857 c0
-4 -7 -8 -15 -8 -10 0 -15 10 -15 28 1 26 1 26 15 8 8 -11 15 -23 15 -28z
m1403 -898 c196 -503 357 -921 359 -928 2 -8 -7 -18 -19 -22 -18 -7 -23 -4
-31 18 -6 15 -166 428 -357 917 -191 490 -351 900 -356 913 -7 19 -5 24 14 31
14 6 24 5 28 -3 4 -6 166 -423 362 -926z m-56 -29 c362 -932 369 -950 327
-951 -17 0 -743 1873 -730 1882 6 5 17 7 25 5 9 -1 149 -348 378 -936z m-59
-22 c335 -862 362 -934 346 -946 -10 -7 -21 -10 -25 -6 -9 9 -729 1859 -729
1872 0 11 20 20 35 17 5 -1 173 -423 373 -937z m1898 914 c-2 -10 -15 -85 -27
-168 -12 -82 -27 -156 -32 -163 -16 -20 -34 3 -66 86 -16 43 -38 100 -49 128
l-21 51 92 41 c107 47 110 47 103 25z m-1959 -929 c199 -511 361 -936 360
-944 -1 -8 -11 -15 -21 -15 -17 0 -77 146 -385 938 -300 772 -362 940 -350
948 7 5 19 7 24 6 6 -2 173 -422 372 -933z m2092 821 c50 -60 91 -112 91 -115
0 -5 -219 -90 -232 -90 -3 0 1 37 8 83 7 45 19 117 25 160 6 43 13 77 14 75 2
-2 44 -52 94 -113z m-4049 -358 c129 -254 305 -599 391 -767 85 -168 153 -308
150 -311 -8 -8 -4352 -1721 -4356 -1717 -1 2 -79 416 -172 922 -167 903 -169
918 -149 927 40 17 3881 1408 3891 1408 6 0 116 -207 245 -462z m1885 -452
c191 -490 355 -911 365 -938 18 -47 18 -47 -2 -58 -11 -6 -22 -9 -24 -6 -2 2
-169 426 -370 943 -336 864 -363 940 -347 951 9 7 20 10 25 5 4 -4 163 -408
353 -897z m1855 901 c0 -2 -7 -7 -16 -10 -8 -3 -12 -2 -9 4 6 10 25 14 25 6z
m2621 -72 c34 -34 55 -62 52 -71 -4 -9 -23 6 -62 48 -31 34 -57 66 -59 71 -9
21 17 3 69 -48z m-4863 -6 c11 -29 176 -453 366 -942 346 -888 352 -905 310
-906 -13 0 -746 1879 -738 1891 3 5 14 9 24 9 13 0 24 -15 38 -52z m-20 -120
c389 -997 675 -1739 671 -1742 -2 -2 -13 -6 -23 -8 -18 -3 -63 107 -388 942
-365 938 -372 959 -331 960 6 0 38 -69 71 -152z m4703 28 l-50 -107 -157 -75
-158 -75 -25 26 c-14 14 -19 23 -11 20 11 -4 24 15 50 76 l35 81 180 83 c99
45 181 81 183 80 1 -2 -20 -50 -47 -109z m-4807 63 c88 -220 716 -1841 716
-1849 0 -16 -37 -31 -43 -17 -3 6 -168 431 -367 942 -199 512 -364 935 -367
942 -4 9 8 16 38 22 4 0 14 -18 23 -40z m-51 -41 c21 -54 607 -1559 687 -1766
28 -71 28 -72 8 -83 -11 -6 -22 -9 -24 -6 -8 8 -734 1880 -734 1892 0 12 13
22 31 24 4 1 18 -27 32 -61z m287 -907 c200 -514 363 -942 364 -950 1 -9 -8
-17 -20 -19 -19 -3 -55 84 -387 940 -202 519 -367 948 -367 955 0 13 31 23 41
14 3 -3 169 -427 369 -940z m-56 -32 c304 -781 367 -952 355 -960 -7 -5 -18
-7 -24 -6 -14 5 -746 1889 -740 1905 2 6 12 12 22 12 15 0 90 -185 387 -951z
m-58 -22 c359 -923 370 -952 350 -964 -16 -9 -23 -9 -28 0 -3 7 -171 437 -373
956 -370 951 -373 960 -330 961 6 0 177 -429 381 -953z m3968 844 l109 -109
-128 -61 c-70 -34 -131 -61 -135 -61 -3 0 -21 15 -39 34 -31 32 -32 35 -18 57
8 13 32 75 53 136 22 62 41 113 44 113 3 0 54 -49 114 -109z m-4032 -853 c202
-519 370 -950 373 -959 4 -11 -1 -18 -16 -22 -13 -4 -25 -5 -26 -3 -2 2 -170
432 -374 956 -372 957 -376 969 -334 970 6 0 175 -424 377 -942z m-54 -35
c343 -882 372 -959 355 -970 -9 -7 -20 -10 -25 -5 -6 6 -748 1906 -748 1916 0
4 15 9 40 15 3 0 173 -430 378 -956z m-53 -36 c304 -780 366 -950 354 -958 -7
-5 -18 -7 -24 -6 -5 2 -176 431 -379 953 -203 522 -371 951 -372 953 -20 24
28 -107 280 -754 161 -412 329 -844 373 -958 80 -204 81 -208 60 -216 -14 -6
-24 -4 -29 3 -3 6 -171 436 -373 956 -202 520 -369 947 -371 949 -2 2 -6 2 -8
0 -2 -2 165 -436 370 -963 277 -711 371 -962 361 -968 -26 -17 -36 -5 -69 80
-19 48 -187 480 -373 960 -187 480 -341 868 -343 863 -2 -5 164 -439 368 -963
341 -876 369 -954 354 -965 -10 -7 -20 -13 -23 -13 -6 0 -737 1876 -747 1917
-5 17 9 25 103 61 75 27 110 36 114 28 3 -6 172 -438 374 -959z m2783 760
c-23 -97 -42 -176 -44 -174 -33 37 -194 241 -194 246 0 6 273 111 277 107 1
-1 -16 -82 -39 -179z m182 49 c50 -60 89 -111 87 -113 -7 -6 -271 -122 -273
-120 -6 6 81 347 88 345 4 -2 48 -52 98 -112z m-591 -342 c94 -242 171 -445
171 -451 0 -14 -31 -26 -40 -16 -4 4 -76 184 -159 398 -139 358 -151 395 -151
454 0 35 2 62 4 60 2 -2 80 -202 175 -445z m2440 261 c-39 -75 -73 -134 -76
-132 -2 3 29 71 69 151 40 81 74 140 76 132 2 -8 -29 -76 -69 -151z m-5416
133 c4 -12 171 -446 374 -966 301 -775 364 -945 352 -953 -7 -5 -18 -7 -24 -6
-7 3 -667 1679 -745 1891 -5 16 -12 27 -15 24 -5 -4 726 -1895 741 -1920 5 -8
-35 -32 -43 -25 -2 3 -169 427 -370 944 -201 516 -369 949 -374 962 -5 13 -12
22 -14 19 -3 -3 162 -434 366 -959 204 -525 373 -959 376 -965 2 -6 -7 -15
-19 -21 -23 -10 -28 3 -398 953 -206 530 -378 964 -382 964 -4 0 -1 -15 6 -32
82 -201 738 -1899 735 -1902 -2 -2 -13 -6 -24 -9 -18 -6 -52 77 -394 958 -206
531 -378 965 -383 965 -4 0 -3 -10 2 -22 6 -13 176 -449 379 -970 328 -844
366 -948 350 -953 -11 -4 -23 -4 -27 -1 -5 3 -177 438 -382 967 -206 528 -376
957 -377 952 -5 -13 736 -1916 748 -1924 5 -3 -3 -11 -17 -18 -19 -8 -29 -9
-34 -2 -3 6 -174 443 -380 972 -206 529 -375 958 -377 952 -4 -11 734 -1913
748 -1927 5 -6 -59 -39 -164 -86 -150 -66 -173 -74 -179 -59 -9 24 -68 302
-65 306 2 1 28 -60 57 -137 29 -77 57 -140 62 -140 5 0 7 3 5 8 -3 4 -37 90
-77 192 -47 123 -82 230 -101 319 -16 74 -28 135 -26 137 1 2 59 -141 127
-318 68 -176 126 -316 128 -310 1 5 -61 173 -138 373 -88 226 -150 402 -164
464 -18 77 -41 135 -98 250 -41 83 -135 305 -209 494 -73 189 -135 339 -136
334 -2 -5 39 -119 91 -253 53 -134 94 -245 92 -247 -5 -5 -177 336 -211 417
-15 36 -32 68 -38 72 -6 4 -9 10 -5 13 6 6 626 243 639 244 4 1 9 -9 12 -21z
m5377 -13 c0 -11 -114 -245 -119 -245 -14 0 -135 133 -126 137 6 2 60 28 120
58 109 53 125 59 125 50z m-461 -87 c-12 -29 -35 -88 -52 -131 -17 -43 -34
-76 -38 -75 -15 6 -130 140 -125 146 6 5 227 112 233 112 2 0 -7 -24 -18 -52z
m194 -66 c64 -64 117 -120 117 -123 0 -3 -56 -32 -125 -64 l-126 -59 -51 52
-52 51 39 98 c59 151 65 163 73 163 4 0 60 -53 125 -118z m-2173 -302 c78
-201 146 -375 150 -386 7 -17 4 -24 -14 -32 -23 -10 -26 -4 -164 352 -134 345
-141 364 -130 399 6 20 12 36 14 34 1 -1 66 -166 144 -367z m299 265 c44 -55
81 -103 81 -106 0 -6 -71 -42 -75 -37 -7 11 -98 254 -92 248 3 -3 41 -50 86
-105z m811 44 c0 -29 -5 -33 -112 -84 -111 -52 -113 -52 -132 -34 -11 10 -18
21 -15 23 4 4 246 122 257 125 1 1 2 -13 2 -30z m99 -79 c74 -89 80 -100 63
-109 -16 -9 -29 2 -85 71 -48 58 -67 88 -67 109 0 16 2 29 4 29 2 0 40 -45 85
-100z m1471 -99 c-38 -78 -75 -141 -80 -141 -6 0 24 69 66 153 43 83 79 147
81 140 2 -6 -28 -75 -67 -152z m-813 -44 l-10 -30 -39 44 c-107 121 -111 127
-103 156 7 28 8 27 85 -56 75 -81 77 -85 67 -114z m-1898 -181 c73 -186 131
-340 129 -341 -2 -1 -12 -5 -24 -9 -19 -6 -30 20 -147 321 -70 181 -127 334
-127 341 0 7 5 23 11 34 9 17 13 18 19 7 4 -8 67 -166 139 -353z m751 343 c0
-22 -73 -324 -80 -332 -4 -5 -49 44 -100 108 -51 64 -91 117 -89 118 9 7 255
115 262 116 4 1 7 -4 7 -10z m460 -69 l62 -74 -103 -48 c-57 -27 -109 -47
-115 -46 -6 2 -39 36 -73 77 l-62 74 103 48 c57 26 108 47 114 46 7 -1 40 -36
74 -77z m490 73 c0 -7 -100 -276 -105 -281 -1 -1 -35 36 -75 83 -39 48 -69 89
-65 93 10 11 219 110 233 111 6 1 12 -2 12 -6z m-881 -49 c-9 -11 5 -33 62
-100 41 -47 82 -96 91 -108 l17 -23 -135 -63 c-90 -42 -138 -60 -145 -53 -6 6
4 66 31 179 22 93 42 180 45 193 6 22 7 23 25 6 15 -14 17 -21 9 -31z m989
-75 c64 -73 70 -83 61 -107 -12 -31 9 -51 28 -26 6 9 16 13 22 9 6 -3 11 -2
11 4 0 5 -4 12 -10 16 -6 3 -5 15 2 31 l11 24 29 -27 c15 -15 25 -30 21 -34
-12 -10 -299 -139 -310 -139 -5 0 -19 13 -30 28 l-20 28 51 137 c28 75 53 137
57 137 3 0 38 -36 77 -81z m1932 -614 c11 -13 -5 -44 -52 -100 -5 -5 -38 21
-82 64 l-74 74 -101 -152 c-56 -83 -105 -151 -110 -151 -8 0 -71 66 -71 75 0
2 43 71 95 154 52 82 95 154 95 158 -1 4 -30 40 -65 78 -56 61 -66 68 -78 55
-8 -8 -51 -76 -97 -150 -45 -74 -84 -136 -85 -138 -1 -1 -22 15 -46 36 l-44
39 97 159 97 159 -71 65 c-39 36 -74 66 -77 67 -3 2 -46 -62 -95 -142 -49 -80
-92 -145 -95 -145 -4 0 -22 15 -40 34 l-32 33 113 210 113 210 346 -338 c191
-187 352 -346 359 -354z m-3790 346 c114 -295 121 -316 104 -328 -10 -7 -21
-10 -25 -6 -4 5 -62 149 -129 322 -117 301 -121 314 -104 332 14 15 19 17 25
7 4 -7 62 -154 129 -327z m917 293 c-4 -4 -14 1 -22 12 -22 29 -18 41 7 17 12
-13 19 -26 15 -29z m4072 -3 c23 -6 15 -14 -90 -97 -63 -50 -120 -94 -128 -99
-14 -8 92 137 132 183 21 22 42 26 86 13z m-5046 -315 c64 -167 117 -308 117
-313 0 -14 -31 -26 -40 -16 -4 4 -60 143 -124 307 -107 277 -114 300 -98 312
9 7 19 13 22 14 3 0 58 -137 123 -304z m1057 232 c54 -64 75 -98 52 -84 -19
11 -133 156 -123 156 5 0 37 -32 71 -72z m1078 -23 c-3 -3 -22 16 -43 42 l-38
48 43 -42 c24 -23 42 -45 38 -48z m266 28 c-14 -32 -37 -84 -52 -116 l-25 -58
-64 63 -64 63 108 52 c59 28 111 52 115 52 4 1 -4 -25 -18 -56z m2851 49 l40
-7 -45 -26 c-85 -50 -192 -100 -184 -87 4 7 27 39 51 71 47 61 54 64 138 49z
m-4604 -119 c121 -149 119 -146 113 -170 -6 -23 -162 -100 -174 -86 -10 11
-132 334 -128 339 7 6 73 33 84 34 5 0 53 -52 105 -117z m957 21 c75 -90 80
-98 70 -125 -5 -16 -13 -27 -17 -24 -5 2 -43 47 -86 100 -71 88 -77 98 -67
121 7 13 14 24 16 24 2 0 40 -43 84 -96z m-2192 -237 c96 -246 104 -273 104
-335 l-1 -67 -134 345 c-168 429 -156 391 -111 354 34 -27 47 -55 142 -297z
m5618 236 c-57 -75 -63 -80 -184 -142 -69 -35 -121 -60 -117 -55 21 22 352
281 356 278 2 -2 -22 -39 -55 -81z m-5085 -223 c60 -157 111 -291 113 -298 2
-8 -7 -18 -18 -22 -20 -8 -28 9 -138 292 -109 281 -115 301 -99 313 10 8 21
11 25 7 3 -4 56 -135 117 -292z m1511 281 c0 -27 -15 -34 -31 -15 -10 13 -10
17 2 25 22 13 29 11 29 -10z m3330 -111 l-92 -120 -60 0 c-33 0 -58 4 -56 10
4 11 279 228 291 229 4 1 -33 -53 -83 -119z m-3361 76 c21 -38 1 -57 -96 -98
l-88 -37 -29 29 c-17 16 -28 32 -25 34 11 11 195 95 210 95 9 1 21 -10 28 -23z
m-1532 -286 c114 -293 118 -309 77 -310 -10 0 -234 562 -234 587 0 12 19 23
34 19 5 -1 60 -134 123 -296z m-442 99 c60 -153 66 -173 63 -230 l-3 -63 -87
224 c-48 124 -90 233 -93 242 -6 15 -3 16 24 5 28 -10 36 -26 96 -178z m2129
86 c47 -57 86 -109 86 -114 0 -5 -6 -11 -14 -14 -15 -6 -176 182 -176 206 0
12 9 27 15 27 1 0 41 -47 89 -105z m3669 91 c-4 -7 -73 -97 -152 -199 l-144
-184 -624 -323 c-343 -177 -626 -321 -628 -319 -2 2 54 85 125 184 105 147
136 184 172 203 23 13 138 72 253 132 116 60 388 201 605 314 217 113 396 206
398 206 2 0 -1 -6 -5 -14z m-5414 -298 c106 -273 112 -293 95 -305 -10 -7 -21
-10 -25 -6 -16 17 -230 584 -224 593 3 5 14 10 23 10 13 0 44 -69 131 -292z
m-347 197 c21 -52 28 -84 27 -134 l0 -66 -49 122 c-68 172 -66 163 -33 154 22
-6 32 -20 55 -76z m286 -213 c61 -159 112 -293 112 -299 0 -14 -31 -26 -40
-16 -10 10 -230 578 -230 592 0 6 10 11 23 11 20 0 33 -29 135 -288z m2432
253 c18 -19 36 -32 40 -30 4 2 22 -12 41 -33 l34 -37 -37 34 c-45 41 -51 30
-9 -14 l30 -30 -21 -47 c-11 -27 -24 -48 -28 -48 -9 0 -140 149 -140 160 0 19
34 80 45 80 6 0 26 -16 45 -35z m-2690 -22 c0 -53 -1 -53 -23 5 -16 41 -16 42
3 42 17 0 20 -7 20 -47z m201 -258 c105 -268 116 -301 101 -312 -9 -7 -19 -13
-22 -13 -4 0 -60 136 -125 303 -64 166 -120 308 -122 315 -4 10 2 13 23 10 27
-3 32 -13 145 -303z m1834 203 c56 -67 73 -93 63 -99 -26 -17 -44 -6 -106 67
-52 61 -63 79 -58 99 4 14 10 25 15 25 5 0 44 -41 86 -92z m1755 -26 c0 -4
-51 -90 -147 -245 l-24 -38 -64 57 c-36 31 -65 60 -65 65 0 4 28 52 62 106 33
54 72 115 85 136 l24 38 64 -57 c36 -31 65 -59 65 -62z m-3645 -206 c116 -299
120 -315 79 -316 -6 0 -54 112 -107 250 -85 219 -97 257 -97 311 0 34 2 60 4
58 3 -3 57 -139 121 -303z m1999 3 c137 -160 244 -294 240 -299 -10 -9 -1551
-680 -1562 -680 -4 0 -107 143 -228 318 -182 260 -219 318 -205 325 71 34
1480 626 1492 626 8 1 125 -128 263 -290z m411 281 c6 -10 -11 -53 -103 -260
l-24 -55 -71 78 -72 78 -75 -30 c-84 -34 -106 -37 -113 -18 -4 10 60 44 211
114 120 56 222 101 229 102 6 1 15 -4 18 -9z m-895 -25 c13 -14 21 -27 18 -30
-2 -3 -17 9 -33 25 -16 17 -24 30 -19 30 6 0 21 -11 34 -25z m-27 -13 l27 -29
-142 -60 -143 -61 -23 27 -22 26 127 62 c71 34 133 62 139 62 5 1 22 -12 37
-27z m1072 -130 c49 -59 28 -74 -242 -179 -7 -3 10 44 36 104 27 59 58 130 70
157 l21 48 44 -48 c24 -27 56 -64 71 -82z m-485 78 c0 -9 -31 -22 -37 -16 -3
2 -2 14 2 26 5 17 10 19 21 9 8 -6 14 -15 14 -19z m797 -329 c72 -189 83 -211
135 -273 32 -37 62 -70 68 -73 5 -3 10 -10 10 -14 0 -5 -33 26 -74 68 l-73 76
-74 204 c-67 186 -78 209 -123 258 -27 30 -51 51 -54 48 -3 -3 15 -27 41 -53
44 -44 53 -64 124 -257 l76 -210 68 -70 68 -70 -40 -65 c-21 -36 -42 -63 -46
-61 -5 3 -36 39 -70 80 -43 51 -63 84 -63 102 0 15 -7 32 -15 39 -10 8 -13 21
-8 38 4 18 1 29 -12 38 -12 9 -16 20 -11 37 4 17 0 30 -14 42 -13 12 -18 25
-14 38 4 12 -2 27 -16 42 -13 13 -20 31 -17 39 3 8 -3 22 -14 32 -11 10 -19
30 -19 49 0 23 -10 41 -41 70 -23 22 -37 31 -31 20 6 -11 22 -31 36 -44 30
-28 32 -43 10 -66 -15 -15 -19 -12 -46 36 l-30 52 27 64 c16 35 34 70 41 78 7
7 10 17 6 21 -3 5 21 -17 55 -50 61 -58 61 -59 140 -265z m2123 276 c0 -8 -8
-21 -17 -29 -23 -19 -273 -151 -278 -146 -2 2 16 29 41 61 25 31 42 57 37 57
-4 0 10 16 32 35 38 32 44 34 113 35 54 0 72 -3 72 -13z m-5026 -234 c47 -122
86 -226 86 -231 0 -11 -38 -23 -44 -14 -2 4 -34 84 -70 177 -57 147 -66 180
-66 235 0 35 2 61 4 59 2 -2 43 -104 90 -226z m1200 205 c9 -12 16 -26 16 -29
0 -6 -54 -29 -66 -29 -7 0 -4 29 6 54 12 32 24 33 44 4z m-94 -49 l-10 -35
-426 -180 c-235 -98 -428 -183 -429 -189 -2 -5 -6 -31 -10 -56 -5 -44 -9 -48
-48 -63 -24 -9 -46 -16 -50 -16 -8 0 -91 109 -86 114 11 11 874 386 888 387 9
0 52 17 96 38 44 21 81 37 82 36 1 0 -2 -17 -7 -36z m1166 -67 c50 -59 153
-178 228 -266 75 -87 135 -160 132 -163 -10 -10 -480 -233 -486 -231 -4 2 28
82 71 178 43 96 78 180 79 186 0 5 -63 84 -140 175 -77 90 -140 167 -140 170
0 8 129 57 150 58 8 0 56 -48 106 -107z m1578 39 l59 -59 -93 -146 c-50 -80
-93 -146 -95 -146 -2 0 -29 29 -60 65 l-57 64 87 141 c48 77 90 140 94 140 4
0 33 -27 65 -59z m-1300 -108 c-51 -110 -52 -111 -80 -115 -14 -2 -35 13 -67
51 -26 30 -44 58 -40 62 6 5 219 97 230 99 1 0 -18 -44 -43 -97z m99 38 c10
-17 42 -96 71 -178 30 -81 57 -155 61 -164 4 -11 -20 -38 -84 -93 l-90 -77 25
56 24 57 -31 39 c-29 37 -79 167 -79 207 0 20 71 182 80 182 3 0 14 -13 23
-29z m-2626 -311 c-1 -8 -11 -15 -21 -15 -14 0 -26 20 -49 79 -17 43 -33 74
-34 69 -2 -6 10 -44 26 -84 27 -67 28 -75 13 -86 -9 -7 -19 -13 -23 -13 -18 0
-28 77 -28 215 l1 150 59 -150 c32 -82 58 -157 56 -165z m2716 246 c7 -18 -1
-26 -25 -26 -18 0 -25 20 -11 33 11 12 31 8 36 -7z m6 -57 c-20 -13 -29 -11
-29 5 0 16 33 27 39 13 2 -5 -3 -13 -10 -18z m1340 -49 l63 -69 -101 -145
-102 -145 -65 70 -65 70 18 27 c119 179 177 262 182 261 3 -1 35 -32 70 -69z
m-1313 29 c7 -12 -12 -29 -33 -29 -28 0 -11 36 19 39 4 1 10 -4 14 -10z m1513
-43 l43 -44 -147 -207 -148 -207 -45 45 -45 45 144 205 c79 113 146 206 149
206 3 1 25 -19 49 -43z m-1795 9 c-4 -8 -10 -12 -15 -9 -11 6 -2 24 11 24 5 0
7 -7 4 -15z m73 -102 c-2 -1 -16 10 -31 26 -24 25 -26 31 -14 56 l12 27 18
-53 c10 -29 16 -54 15 -56z m223 97 c0 -12 -35 -31 -44 -23 -11 11 -6 21 12
26 29 8 32 7 32 -3z m17 -47 c4 -12 -34 -29 -44 -19 -3 3 -3 12 1 21 7 18 37
17 43 -2z m13 -37 c0 -16 -27 -29 -42 -20 -7 5 -4 12 7 21 24 17 35 17 35 -1z
m-540 -19 c0 -1 -36 -83 -80 -182 -43 -99 -75 -181 -70 -183 5 -2 118 49 252
112 133 64 245 116 249 116 4 0 -80 -183 -186 -407 l-194 -407 -1283 -596
c-823 -383 -1284 -592 -1286 -584 -7 27 80 709 91 720 7 6 199 91 427 189 228
98 417 180 418 181 2 1 25 85 50 185 l47 183 775 338 c711 310 790 343 790
335z m555 -16 c3 -6 -3 -15 -14 -20 -26 -14 -31 -14 -31 3 0 21 34 34 45 17z
m-2363 -328 c118 -170 218 -313 221 -320 8 -12 -73 -353 -84 -353 -3 0 -24 22
-46 48 l-41 48 19 90 c41 186 51 152 -112 392 -79 116 -147 211 -150 212 -4 0
-11 -21 -16 -47 l-9 -48 -18 27 c-17 27 -17 32 0 143 10 63 19 115 20 115 1 0
99 -138 216 -307z m2368 288 c0 -11 -31 -24 -39 -16 -3 3 1 10 9 15 19 12 30
12 30 1z m-2786 -62 c26 -33 46 -62 44 -63 -6 -3 -82 -38 -135 -62 l-53 -24 0
83 0 82 48 22 c26 11 47 22 48 22 0 1 22 -26 48 -60z m2805 8 c-12 -10 -98
-57 -104 -57 -14 0 32 63 55 75 21 12 27 11 39 0 8 -8 13 -16 10 -18z m-5430
-99 c12 -62 57 -277 100 -478 78 -363 78 -365 57 -376 -33 -18 -2943 -1314
-2950 -1314 -3 0 -6 95 -6 210 l0 210 365 0 c392 0 405 2 431 51 18 35 19 236
2 274 -26 57 -3 55 -818 55 -815 0 -792 2 -818 -55 -17 -38 -16 -239 2 -274
26 -50 39 -51 441 -51 l375 0 0 -218 0 -218 -55 -23 c-31 -13 -60 -32 -65 -42
-8 -14 16 -127 100 -465 60 -246 110 -449 110 -451 0 -2 -373 349 -829 779
l-829 783 32 13 c176 73 4305 1701 4316 1701 12 1 21 -25 39 -111z m2461 12
l0 -79 -77 -36 c-42 -19 -77 -34 -78 -33 -1 2 -21 31 -44 66 l-42 62 23 9 c13
5 64 28 113 50 50 22 93 40 98 40 4 1 7 -35 7 -79z m2838 19 c-47 -77 -68 -99
-95 -99 -13 0 -26 -7 -29 -15 -4 -9 -15 -20 -26 -26 -19 -10 -19 -10 -1 25 15
29 173 178 181 171 1 -1 -12 -27 -30 -56z m142 41 c0 -11 -139 -84 -146 -77
-7 6 18 24 77 57 59 32 69 35 69 20z m59 -95 l62 -74 -80 -40 -79 -40 -63 70
c-34 38 -60 71 -58 73 3 4 152 85 155 86 1 0 29 -34 63 -75z m-2715 15 l-7
-42 -23 29 c-13 15 -23 31 -24 34 0 5 53 27 58 24 1 -1 0 -21 -4 -45z m-50
-46 c28 -36 34 -52 30 -73 -4 -14 -9 -29 -13 -33 -10 -12 -313 -149 -322 -146
-15 6 -98 133 -91 140 4 4 33 18 65 32 l57 26 0 -30 c0 -43 18 -37 22 6 3 36
5 38 98 80 52 23 100 43 107 43 7 1 28 -20 47 -45z m-503 -35 c22 -33 39 -62
37 -64 -6 -6 -359 -165 -366 -165 -13 1 -83 123 -75 131 9 9 344 159 355 159
4 0 26 -27 49 -61z m659 -10 c0 -8 -42 -20 -48 -14 -2 2 -1 18 3 36 l7 32 19
-24 c10 -13 19 -27 19 -30z m2416 9 c75 -81 85 -95 78 -111 -5 -13 -21 2 -70
60 -35 43 -64 81 -64 85 0 17 18 6 56 -34z m-2 -59 c32 -38 57 -72 55 -74 -19
-18 -44 -2 -98 60 -34 39 -61 73 -61 78 0 4 10 7 23 7 16 0 40 -20 81 -71z m2
-93 c7 -21 -18 -46 -46 -46 -10 0 -45 32 -80 72 -57 66 -61 73 -44 85 10 7 20
13 24 13 3 0 34 -34 69 -75 35 -42 66 -74 68 -71 3 3 -22 37 -56 76 -33 39
-61 77 -61 83 0 16 117 -112 126 -137z m273 110 c-2 -2 -42 -23 -88 -46 -56
-28 -124 -75 -200 -140 -85 -72 -143 -111 -218 -149 -110 -55 -126 -60 -121
-35 2 8 48 35 105 61 62 27 105 52 108 63 3 11 20 21 40 24 25 5 36 13 41 30
4 17 15 26 37 30 20 4 36 15 42 29 6 12 20 23 32 25 12 2 29 14 37 28 20 29
167 106 180 93 5 -5 8 -10 5 -13z m-2779 -7 c0 -5 -7 -9 -15 -9 -15 0 -20 12
-9 23 8 8 24 -1 24 -14z m330 -322 c0 -9 -163 -91 -448 -226 -246 -116 -452
-211 -457 -211 -9 0 -187 290 -193 315 -2 9 162 84 695 318 19 8 26 6 44 -16
11 -15 24 -27 29 -27 4 0 11 25 15 57 10 78 12 83 59 102 l41 18 107 -158 c60
-86 108 -164 108 -172z m2063 210 c22 -26 37 -51 35 -57 -5 -16 -118 115 -118
137 1 19 -2 23 83 -80z m-2388 12 l-7 -53 -19 23 c-26 32 -24 66 4 78 12 6 24
9 26 7 1 -1 0 -26 -4 -55z m-462 -16 c25 -38 43 -71 39 -74 -4 -4 -90 -42
-190 -85 -151 -64 -185 -75 -192 -64 -5 8 -25 40 -44 70 -19 30 -32 56 -28 58
4 1 84 38 177 81 94 44 175 80 181 80 5 1 31 -29 57 -66z m2821 -13 c47 -55
53 -66 38 -72 -9 -3 -20 -7 -23 -7 -14 -2 -98 120 -93 134 9 22 14 18 78 -55z
m-3403 -113 c-5 -5 -67 -36 -138 -68 -144 -65 -132 -67 -182 24 l-32 58 43 19
c24 10 104 46 178 79 l135 60 3 -81 c2 -45 -1 -85 -7 -91z m987 156 c-2 -12
-112 -65 -362 -176 -197 -87 -364 -156 -370 -154 -6 3 39 28 99 56 337 158
621 289 628 290 5 1 7 -7 5 -16z m2372 -76 c41 -55 47 -67 31 -67 -12 0 -81
94 -81 109 0 19 8 12 50 -42z m-3281 7 c27 -45 27 -47 -10 -61 l-31 -12 6 31
c3 17 6 41 6 54 0 32 4 30 29 -12z m3262 -39 c23 -31 40 -57 38 -58 -11 -8
-150 -67 -158 -67 -5 0 9 41 32 90 22 50 42 90 44 90 1 0 21 -25 44 -55z
m-3172 -101 l42 -66 -26 -24 c-15 -14 -56 -38 -92 -54 l-66 -30 6 67 c4 38 7
83 7 101 0 29 5 35 43 52 23 10 43 19 43 19 1 1 20 -29 43 -65z m-557 -24 c1
-38 2 -77 2 -87 1 -11 -44 -37 -158 -90 -87 -40 -162 -73 -167 -73 -7 0 -92
141 -87 145 9 6 394 174 401 174 4 1 8 -30 9 -69z m383 -126 c-6 -40 -8 -42
-82 -77 l-77 -36 -43 76 c-24 42 -42 78 -40 79 2 2 57 29 123 59 l119 55 3
-58 c2 -31 1 -75 -3 -98z m-310 56 c-3 -6 -13 -10 -21 -10 -10 0 -14 13 -14
48 l1 47 20 -38 c11 -21 17 -42 14 -47z m1652 -95 l-20 -96 28 -29 c18 -19 25
-34 19 -39 -5 -5 -180 -82 -388 -171 -306 -129 -382 -158 -391 -148 -7 7 -33
48 -59 91 l-46 78 167 80 c93 44 285 135 428 203 143 69 265 125 271 125 8 1
5 -29 -9 -94z m-1578 -11 c23 -42 41 -78 39 -79 -2 -2 -33 -17 -69 -33 l-66
-30 -7 51 c-12 107 -9 135 22 151 15 8 29 15 33 16 3 0 24 -34 48 -76z m580
-93 c55 -93 101 -174 101 -180 0 -6 -6 -11 -14 -11 -12 0 -216 334 -216 354 0
3 6 6 14 6 7 0 59 -76 115 -169z m-38 -26 c55 -93 99 -173 99 -176 0 -4 -7 -9
-15 -12 -10 -4 -28 15 -57 63 -24 39 -46 70 -50 70 -5 0 -8 -28 -8 -63 l0 -63
-45 -22 -45 -22 0 80 0 80 50 25 c35 18 48 29 44 40 -8 19 -7 19 -54 -5 l-40
-20 0 101 c0 70 3 100 11 97 7 -2 56 -80 110 -173z m-1137 148 c2 -10 6 -49 8
-87 l3 -70 -158 -72 -157 -73 -40 79 -39 78 182 81 c100 44 185 81 189 81 4 0
9 -8 12 -17z m1006 -78 l0 -95 -70 -35 c-38 -19 -72 -35 -75 -35 -7 0 -6 98 2
155 6 46 7 48 67 75 34 16 64 29 69 29 4 1 7 -42 7 -94z m-552 -20 l-3 -96
-109 -50 c-109 -50 -110 -50 -125 -30 -26 35 -75 130 -70 135 9 10 284 134
297 135 10 1 12 -22 10 -94z m-374 -27 c-3 -4 -12 -8 -20 -8 -10 0 -14 11 -14
38 l0 37 19 -29 c11 -17 18 -33 15 -38z m741 -43 c-5 -76 -10 -97 -24 -105
-15 -7 -24 3 -59 66 -23 40 -42 76 -42 79 0 8 123 65 128 60 3 -2 1 -47 -3
-100z m-175 -75 l0 -100 -51 -25 c-27 -14 -61 -30 -75 -35 l-24 -10 0 101 0
100 73 33 c39 19 73 35 75 35 1 1 2 -44 2 -99z m-497 10 c45 -80 46 -81 24
-89 -12 -5 -25 -7 -30 -4 -4 2 -24 36 -43 76 -34 67 -35 71 -18 84 10 7 19 13
20 13 1 0 22 -36 47 -80z m-523 -10 c29 -60 32 -73 20 -80 -30 -19 -38 -9 -49
58 -7 37 -14 75 -18 86 -11 39 14 5 47 -64z m-66 -26 c10 -47 16 -87 14 -88
-23 -16 -261 -117 -265 -112 -6 6 -34 169 -29 173 7 7 242 112 252 112 6 1 19
-37 28 -85z m469 -47 l5 -69 -115 -54 c-64 -30 -118 -54 -122 -54 -10 0 -83
152 -76 159 4 3 70 36 148 72 l142 65 7 -25 c3 -14 8 -57 11 -94z m2206 109
c9 -11 -52 -41 -336 -164 -475 -206 -487 -211 -494 -207 -3 3 -27 41 -53 85
-35 60 -46 90 -44 113 3 31 5 29 47 -43 24 -41 50 -82 58 -91 12 -15 51 0 406
152 216 92 395 168 398 168 4 1 12 -5 18 -13z m-1515 -43 c15 -25 25 -47 24
-48 -8 -6 -47 -25 -52 -25 -3 0 -6 27 -6 60 0 33 2 60 4 60 2 0 16 -21 30 -47z
m282 -19 c-3 -26 -6 -61 -6 -79 0 -29 -5 -34 -61 -60 -59 -29 -61 -29 -75 -10
-8 10 -14 42 -14 72 l0 53 68 34 c91 47 96 47 88 -10z m-543 -157 c-6 -11
-100 -57 -115 -57 -7 0 -32 35 -55 78 l-42 78 102 47 102 46 7 -92 c3 -50 4
-95 1 -100z m697 142 c7 -12 3 -19 -15 -27 -25 -11 -25 -11 -25 36 1 44 2 46
16 27 9 -11 19 -27 24 -36z m-1070 -19 c21 -41 20 -60 -5 -60 -9 0 -14 17 -17
50 -1 28 -2 50 -1 50 2 0 12 -18 23 -40z m-820 3 c0 -10 6 -55 14 -101 l13
-83 -29 -15 -29 -15 -44 92 -43 93 46 22 c58 28 72 29 72 7z m1550 -23 c0 -5
-2 -10 -4 -10 -3 0 -8 5 -11 10 -3 6 -1 10 4 10 6 0 11 -4 11 -10z m-30 -42
c11 -18 20 -49 20 -68 0 -33 -4 -38 -55 -63 -31 -15 -58 -27 -60 -27 -3 0 -5
35 -5 78 l0 78 33 17 c44 22 45 21 67 -15z m405 22 c3 -5 4 -10 2 -10 -3 0
-21 -7 -41 -15 -42 -18 -49 -3 -8 19 33 18 39 19 47 6z m-977 -88 c-3 -26 -4
-26 -26 16 -13 24 -22 45 -20 46 2 2 12 8 23 14 18 10 20 7 23 -19 2 -16 2
-42 0 -57z m-1079 -19 c12 -54 18 -99 14 -101 -5 -1 -96 -43 -203 -92 l-195
-90 -43 92 c-23 50 -39 94 -35 98 12 11 416 189 429 190 6 0 20 -44 33 -97z
m585 20 c35 -72 37 -78 20 -90 -10 -7 -23 -13 -29 -13 -6 0 -28 35 -49 77 -35
72 -37 78 -20 90 10 7 23 13 29 13 6 0 28 -35 49 -77z m1541 -115 c-5 -152 -9
-185 -23 -195 -9 -7 -18 -13 -22 -13 -3 0 -29 44 -57 98 -50 95 -51 98 -46
163 l6 66 45 23 46 22 23 -29 c25 -31 32 -20 8 13 -15 22 -11 34 12 34 11 0
12 -32 8 -182z m-155 164 c0 -7 -83 -52 -96 -52 -14 0 11 22 44 40 41 21 52
24 52 12z m-932 -83 c24 -45 42 -82 40 -83 -50 -25 -121 -56 -123 -54 -2 2 -6
46 -10 99 -7 93 -7 95 16 106 13 7 26 12 29 12 3 0 24 -36 48 -80z m472 -2 l0
-83 -69 -31 -69 -30 -6 45 c-14 103 -14 104 67 144 39 20 73 37 75 37 1 1 2
-36 2 -82z m-1035 -64 c6 -20 35 -15 35 5 1 16 1 16 11 -1 6 -11 7 -23 2 -28
-7 -7 -308 -149 -317 -149 -6 0 -28 168 -24 180 2 6 62 38 133 70 l130 59 13
-62 c7 -34 15 -68 17 -74z m438 -20 l6 -71 -76 -36 c-41 -20 -78 -36 -82 -36
-9 0 -86 158 -80 164 2 2 51 26 109 53 l105 49 6 -25 c4 -14 9 -58 12 -98z
m947 117 c0 -11 -91 -53 -98 -45 -7 7 -4 9 43 33 45 24 55 26 55 12z m-710
-41 c11 -26 11 -32 -1 -40 -25 -15 -29 -10 -29 37 0 50 11 51 30 3z m811 -27
c-2 -46 -6 -60 -24 -72 -12 -8 -32 -26 -44 -39 l-23 -24 0 80 0 79 43 21 c23
11 44 19 46 17 3 -3 4 -30 2 -62z m278 -285 c-12 -105 -26 -196 -30 -201 -4
-4 -14 5 -22 20 -13 26 -13 50 4 217 19 185 19 189 1 215 -24 34 -35 69 -26
83 4 6 25 -21 51 -65 l44 -76 -22 -193z m-909 233 c0 -64 -3 -82 -16 -87 -19
-7 -32 7 -68 69 l-26 47 47 25 c27 14 51 25 56 26 4 0 7 -36 7 -80z m515 -96
c-8 -6 -15 -16 -15 -22 0 -6 -13 -19 -30 -29 -16 -9 -30 -24 -30 -32 0 -8 -3
-12 -6 -8 -3 3 -3 54 1 112 l8 107 41 17 41 18 3 -76 c2 -59 0 -78 -13 -87z
m-125 146 c0 -5 -5 -10 -11 -10 -5 0 -7 5 -4 10 3 6 8 10 11 10 2 0 4 -4 4
-10z m-50 -19 c0 -5 -25 -21 -56 -35 -63 -29 -64 -29 -64 -17 0 4 26 20 58 34
66 31 62 30 62 18z m-1496 -73 c4 -35 9 -74 12 -88 2 -14 -13 11 -34 55 -38
79 -38 80 -18 92 11 6 24 9 27 7 4 -2 9 -32 13 -66z m2021 12 c-2 -8 -9 -78
-16 -155 -22 -253 -37 -194 -22 89 6 126 6 128 24 105 10 -13 17 -31 14 -39z
m-1514 -42 c39 -77 40 -83 23 -95 -10 -7 -21 -13 -25 -13 -7 0 -89 148 -89
161 0 5 33 24 47 28 2 1 21 -36 44 -81z m545 20 l33 -58 -29 -15 -30 -15 -32
65 c-28 56 -31 67 -18 75 26 17 41 7 76 -52z m497 -124 c-7 -40 -15 -53 -43
-72 -19 -13 -34 -28 -32 -33 1 -5 -14 -17 -33 -26 -20 -9 -34 -22 -32 -27 4
-11 -21 -35 -35 -36 -9 0 -11 244 -2 276 7 25 82 64 124 64 19 0 30 5 30 14 0
8 6 16 13 19 15 5 22 -108 10 -179z m-2201 67 c16 -52 26 -97 21 -101 -23 -19
-396 -180 -403 -173 -4 4 -23 48 -43 96 l-36 88 57 25 c31 14 125 56 207 93
83 38 154 68 159 67 5 -1 22 -44 38 -95z m593 23 c19 -42 35 -80 35 -84 0 -4
-11 -12 -24 -18 -23 -10 -23 -9 -43 79 -18 79 -19 99 -6 99 2 0 19 -34 38 -76z
m-66 -39 c11 -49 19 -90 18 -91 -1 -1 -47 -22 -102 -47 -55 -25 -135 -61 -178
-81 l-78 -36 -39 82 c-22 45 -38 83 -36 85 5 5 391 181 393 179 1 -1 11 -42
22 -91z m1041 12 l0 -82 -59 -26 -59 -26 -6 45 c-14 106 -13 110 57 142 34 16
63 29 65 30 1 0 2 -37 2 -83z m925 -3 c47 -86 48 -96 9 -108 -17 -5 -27 6 -68
81 -46 81 -48 87 -30 100 10 7 23 13 30 13 7 0 33 -39 59 -86z m-1417 -3 c25
-46 38 -82 33 -86 -9 -5 -58 79 -81 141 -20 51 7 20 48 -55z m912 72 c0 -5
-32 -22 -70 -40 -39 -17 -70 -27 -70 -22 0 6 28 23 63 39 67 31 77 34 77 23z
m-965 -93 c21 -44 37 -82 34 -84 -8 -8 -280 -136 -288 -136 -12 0 -84 160 -77
168 10 9 268 130 281 131 6 1 28 -35 50 -79z m1403 -15 c23 -41 42 -77 42 -79
0 -3 -13 -12 -29 -21 l-29 -15 -42 77 -43 77 23 18 c12 10 25 18 29 18 3 0 25
-34 49 -75z m-791 -7 c-22 -14 -27 -8 -27 35 l1 42 18 -35 c14 -25 16 -37 8
-42z m353 -84 l0 -145 -82 -39 c-46 -21 -84 -37 -84 -36 -1 0 -4 61 -7 134 -6
127 -6 132 13 132 14 0 20 7 20 21 0 15 15 27 63 49 34 16 65 29 70 30 4 0 7
-66 7 -146z m-581 34 c1 -57 1 -58 -39 -78 -21 -11 -42 -20 -44 -20 -7 0 -66
116 -66 128 0 5 30 23 68 40 l67 32 7 -23 c3 -12 6 -48 7 -79z m401 82 c0 -5
-5 -10 -11 -10 -5 0 -7 5 -4 10 3 6 8 10 11 10 2 0 4 -4 4 -10z m551 -72 c19
-35 35 -66 37 -69 3 -7 -57 -34 -62 -28 -2 2 -20 31 -40 64 l-36 60 23 17 c12
10 27 18 33 18 6 0 26 -28 45 -62z m-615 37 c-11 -8 -27 -15 -35 -15 -10 1 -7
6 9 15 33 19 50 18 26 0z m-76 -33 c0 -8 -43 -32 -55 -32 -14 0 -2 18 18 28
28 13 37 14 37 4z m-417 -57 c32 -66 33 -71 8 -85 -17 -9 -24 -2 -56 56 -30
53 -35 68 -24 75 29 18 45 8 72 -46z m527 -2 l0 -58 -25 44 c-28 49 -30 57
-12 64 32 13 37 7 37 -50z m510 10 c16 -27 30 -53 30 -59 0 -10 -49 -39 -55
-32 -24 30 -36 138 -15 138 5 0 23 -21 40 -47z m-1618 -6 c10 -23 22 -64 27
-90 7 -41 6 -49 -10 -58 -16 -8 -23 -1 -52 58 -52 102 -53 109 -20 121 15 6
30 11 33 11 3 1 13 -18 22 -42z m-1121 -65 l38 -92 -67 -31 c-37 -16 -134 -60
-217 -98 l-150 -68 -47 73 c-26 41 -52 82 -57 93 -10 17 9 28 212 119 122 55
228 100 236 99 7 -1 30 -44 52 -95z m1649 -43 c0 -5 -4 -11 -10 -14 -13 -8
-73 113 -65 133 4 12 16 -1 41 -48 19 -35 34 -67 34 -71z m1394 116 c-4 -8 -7
-15 -9 -15 -2 0 -5 7 -9 15 -3 9 0 15 9 15 9 0 12 -6 9 -15z m-1024 0 c0 -9
-102 -56 -113 -52 -7 3 13 16 43 30 56 26 70 31 70 22z m174 -86 c27 -52 46
-104 46 -123 0 -28 -5 -35 -45 -54 -27 -13 -45 -28 -43 -36 2 -8 -14 -26 -34
-40 l-38 -25 -4 22 c-3 12 -7 88 -9 168 l-4 147 31 15 c17 9 36 16 42 16 6 1
32 -40 58 -90z m451 -18 c-6 -24 -7 -23 -31 18 -13 24 -24 46 -24 50 0 3 12
14 28 23 l27 17 3 -41 c2 -23 0 -53 -3 -67z m395 7 c0 -44 4 -58 14 -58 8 0
18 5 22 11 4 7 19 -10 36 -40 29 -50 29 -53 13 -71 -10 -11 -21 -17 -26 -15
-10 7 -142 245 -138 249 48 39 78 10 79 -76z m-2517 10 c15 -45 23 -86 19 -90
-17 -16 -377 -177 -383 -170 -10 10 -72 163 -68 166 15 10 386 176 394 176 6
0 23 -37 38 -82z m520 -115 c-4 -2 -75 -35 -157 -73 -82 -39 -150 -69 -151
-68 -16 24 -76 170 -72 174 4 4 82 42 174 84 l168 78 23 -96 c13 -53 20 -98
15 -99z m519 122 c17 -37 28 -68 25 -71 -3 -3 -70 -37 -149 -74 l-143 -68 -31
66 c-17 37 -28 70 -25 74 5 6 280 137 289 138 2 0 17 -29 34 -65z m1457 -80
l69 -120 -21 -23 c-11 -12 -25 -21 -29 -20 -5 2 -42 62 -82 133 -67 117 -72
131 -58 143 33 26 52 8 121 -113z m-2419 18 c1 -29 -20 -10 -30 28 -6 22 -13
48 -16 57 -3 9 6 -3 20 -28 14 -25 25 -51 26 -57z m1430 39 c0 -33 3 -113 7
-180 l6 -121 -39 -18 c-21 -10 -45 -24 -52 -30 -7 -7 -17 -13 -21 -13 -5 0
-20 -11 -35 -25 -48 -45 -47 -48 -70 151 -21 174 -21 191 5 204 25 14 49 6 49
-15 0 -8 7 -15 15 -15 10 0 15 10 15 33 0 30 5 35 53 59 28 15 55 27 60 27 4
1 7 -25 7 -57z m-160 33 c0 -2 -18 -14 -40 -25 -22 -11 -40 -17 -40 -12 0 5
15 16 33 25 34 17 47 20 47 12z m739 -34 l20 -38 -25 -12 c-33 -15 -29 -16
-54 26 -21 35 -21 38 -4 50 29 21 42 15 63 -26z m82 -4 c-8 -8 -11 -3 -11 19
1 25 2 27 11 11 8 -14 8 -22 0 -30z m258 -95 c61 -109 71 -135 61 -147 -7 -8
-18 -15 -25 -15 -11 0 -181 268 -173 274 14 12 45 25 53 22 6 -1 43 -62 84
-134z m-5469 108 c0 -17 -7 -20 -45 -20 -33 0 -45 -4 -45 -15 0 -11 12 -15 46
-15 38 0 45 -3 42 -17 -2 -13 -15 -19 -46 -21 -56 -4 -54 -22 3 -22 38 0 45
-3 45 -20 0 -18 -7 -20 -60 -20 l-60 0 0 78 c0 43 3 82 7 85 3 4 30 7 60 7 46
0 53 -2 53 -20z m117 -35 c21 -30 41 -54 46 -55 4 0 7 25 7 55 0 30 5 55 10
55 6 0 10 -35 10 -85 0 -74 -2 -85 -17 -85 -10 0 -34 23 -53 50 -19 27 -38 50
-42 50 -5 0 -8 -22 -8 -50 0 -27 -4 -50 -10 -50 -6 0 -10 35 -10 85 0 104 12
110 67 30z m243 35 c0 -15 -7 -20 -25 -20 -24 0 -25 -2 -25 -65 0 -51 -3 -65
-15 -65 -12 0 -15 14 -15 65 0 63 -1 65 -25 65 -18 0 -25 5 -25 20 0 18 7 20
65 20 58 0 65 -2 65 -20z m155 -5 c29 -28 31 -42 9 -73 -14 -21 -14 -25 0 -47
15 -23 15 -25 -2 -25 -10 0 -25 11 -32 25 -8 16 -22 25 -37 25 -18 0 -23 -5
-23 -25 0 -16 -6 -25 -15 -25 -12 0 -15 16 -15 85 l0 85 45 0 c35 0 52 -6 70
-25z m189 -58 c28 -74 29 -111 2 -74 -17 22 -94 24 -102 2 -5 -13 -34 -22 -34
-10 0 2 10 30 21 62 12 32 26 68 30 81 7 17 15 22 31 20 18 -2 28 -19 52 -81z
m138 26 l43 -57 3 57 c5 89 22 67 22 -28 0 -103 -12 -109 -67 -35 -20 28 -41
50 -45 50 -4 0 -8 -22 -8 -50 0 -27 -4 -50 -10 -50 -6 0 -10 35 -10 85 0 105
11 109 72 28z m261 25 c35 -34 24 -51 -15 -24 -12 9 -32 16 -43 16 -26 0 -65
-27 -65 -45 0 -41 76 -60 112 -28 13 12 21 14 29 6 20 -20 -34 -63 -77 -63
-52 0 -84 31 -84 82 0 84 83 116 143 56z m177 12 c0 -17 -7 -20 -45 -20 -33 0
-45 -4 -45 -15 0 -11 12 -15 46 -15 38 0 45 -3 42 -17 -2 -13 -15 -19 -46 -21
-56 -4 -54 -22 3 -22 38 0 45 -3 45 -20 0 -18 -7 -20 -60 -20 l-60 0 0 78 c0
43 3 82 7 85 3 4 30 7 60 7 46 0 53 -2 53 -20z m4126 -152 l83 -137 -30 -22
c-17 -12 -31 -20 -33 -18 -1 2 -40 69 -85 149 -77 134 -81 145 -64 157 10 8
24 12 32 11 8 -2 52 -65 97 -140z m-1137 111 c-8 -5 -21 -9 -29 -9 -12 1 -11
4 4 15 10 8 23 12 29 8 5 -3 3 -9 -4 -14z m796 -9 c15 -29 15 -31 -10 -40 -37
-14 -43 -13 -56 12 -10 18 -8 24 11 40 30 24 37 23 55 -12z m267 -139 l86
-149 -22 -21 c-12 -12 -26 -21 -32 -21 -14 0 -164 270 -164 296 0 19 21 43 40
44 3 0 44 -67 92 -149z m-1137 119 c-3 -5 -11 -10 -16 -10 -6 0 -7 5 -4 10 3
6 11 10 16 10 6 0 7 -4 4 -10z m795 -15 c7 -14 11 -27 9 -29 -9 -9 -191 -97
-194 -94 -2 2 -5 17 -7 33 -3 29 1 32 82 72 47 24 88 43 91 43 3 0 12 -11 19
-25z m-693 -75 c-2 -9 -12 2 -25 27 -21 39 -21 43 -4 52 14 8 18 4 25 -27 4
-20 6 -43 4 -52z m861 3 l-3 -28 -23 39 c-13 21 -22 40 -20 41 2 1 12 7 23 13
17 9 20 8 23 -14 2 -13 2 -36 0 -51z m-1977 -19 c22 -48 38 -88 36 -90 -3 -3
-117 -58 -344 -164 l-102 -48 -35 85 c-20 47 -36 89 -36 93 0 6 420 207 438
209 2 1 21 -38 43 -85z m508 36 l0 -25 -15 28 c-8 15 -12 32 -8 38 9 16 24
-10 23 -41z m440 36 c-2 -2 -67 -33 -143 -70 -125 -59 -171 -77 -153 -60 11
11 292 142 296 138 2 -2 2 -6 0 -8z m-2117 -104 c20 -50 33 -94 29 -96 -10 -6
-403 -186 -406 -186 -8 0 -116 183 -111 187 14 15 442 200 447 195 3 -4 22
-49 41 -100z m597 22 c18 -42 30 -81 29 -86 -4 -10 -389 -192 -393 -186 -22
32 -95 151 -95 156 0 8 398 191 416 192 6 0 26 -34 43 -76z m1159 -35 c-21
-14 -28 -10 -28 14 0 12 -2 40 -5 62 l-5 40 25 -54 c21 -43 23 -56 13 -62z
m503 11 c39 -77 50 -108 55 -165 l6 -70 -202 -97 c-130 -63 -203 -93 -205 -85
-16 45 -74 342 -68 348 14 14 348 169 357 166 4 -1 30 -45 57 -97z m854 49
c21 -41 25 -61 23 -115 l-3 -64 -52 94 c-29 52 -53 97 -53 100 0 4 48 34 57
36 2 0 14 -23 28 -51z m-1467 -25 c33 -67 34 -84 3 -84 -13 0 -20 17 -33 75
-8 41 -12 75 -9 75 4 0 21 -30 39 -66z m-54 -70 l7 -40 -135 -64 c-75 -35
-138 -61 -140 -59 -2 2 -17 34 -34 70 l-30 66 152 71 151 71 11 -38 c6 -20 15
-55 18 -77z m1642 43 c23 -39 56 -97 73 -129 l32 -56 -30 -21 -29 -21 -51 94
c-44 81 -51 101 -51 150 0 31 3 56 8 56 4 0 26 -33 48 -73z m-128 -104 c51
-93 93 -172 93 -177 1 -6 -62 -40 -140 -77 l-140 -67 -62 111 c-60 106 -63
114 -67 191 l-4 81 103 52 c57 28 109 52 114 52 6 1 52 -74 103 -166z m-370
76 c-22 -14 -35 -10 -52 16 -16 24 -15 25 21 44 l38 19 3 -35 c2 -22 -2 -39
-10 -44z m893 -51 c-6 -57 -14 -116 -17 -131 -5 -26 -51 -51 -577 -313 -315
-157 -567 -282 -562 -276 6 5 109 88 230 184 202 161 233 182 373 252 137 69
173 93 354 236 111 88 203 158 206 156 2 -3 -1 -51 -7 -108z m-947 46 c7 -19
8 -18 -20 -32 -17 -9 -24 -8 -33 2 -9 11 -7 18 11 30 28 20 34 20 42 0z m-908
-19 c-11 -8 -25 -15 -30 -15 -6 0 -2 7 8 15 11 8 25 15 30 15 6 0 2 -7 -8 -15z
m-1698 -20 c-3 -3 -9 2 -12 12 -6 14 -5 15 5 6 7 -7 10 -15 7 -18z m2542 -3
c0 -5 -11 -14 -25 -20 -28 -13 -44 2 -18 17 22 13 43 14 43 3z m134 -8 c3 -9
6 -23 6 -32 -1 -15 -3 -14 -15 2 -17 22 -20 46 -6 46 5 0 12 -7 15 -16z
m-1064 -14 c-8 -6 -22 -10 -30 -9 -9 0 -5 6 10 14 27 14 44 10 20 -5z m1555
-87 l28 -52 -24 -20 c-13 -10 -27 -17 -31 -15 -12 8 -66 114 -58 114 5 0 11
18 15 41 l7 41 17 -29 c10 -15 30 -52 46 -80z m-1980 21 c17 -41 25 -69 18
-71 -5 -2 -108 -51 -227 -108 l-217 -104 -25 57 c-42 95 -55 83 190 198 121
56 223 101 226 99 4 -2 19 -34 35 -71z m559 -6 c9 -45 14 -83 11 -86 -2 -2
-21 30 -42 72 -32 65 -36 78 -23 86 30 19 37 9 54 -72z m914 40 c19 -35 23
-55 20 -108 l-3 -65 -49 94 c-46 89 -48 95 -30 108 28 21 38 16 62 -29z
m-2049 -57 c17 -40 31 -79 31 -86 0 -11 -375 -195 -398 -195 -12 0 -67 178
-58 187 16 16 381 180 387 174 4 -3 21 -39 38 -80z m-1184 -30 l34 -102 -32
-14 c-18 -7 -106 -47 -197 -89 -90 -42 -167 -76 -171 -76 -8 0 -129 167 -129
179 0 8 452 212 457 207 2 -2 19 -49 38 -105z m615 82 c27 -60 50 -137 42
-145 -8 -8 -72 138 -72 163 0 19 17 8 30 -18z m2439 23 c-10 -9 -69 -36 -69
-32 0 7 52 35 64 36 5 0 7 -2 5 -4z m-950 -20 c-12 -12 -259 -124 -259 -118 0
9 253 131 259 125 2 -1 2 -5 0 -7z m1099 -105 c34 -66 62 -131 62 -145 0 -15
6 -26 13 -26 7 0 24 -19 37 -41 l23 -42 -24 -18 c-13 -10 -26 -19 -29 -19 -7
0 -203 380 -199 384 8 7 44 25 49 26 3 0 33 -54 68 -119z m-2621 19 c18 -46
31 -85 30 -86 -5 -4 -354 -163 -365 -166 -6 -2 -33 33 -61 77 l-50 80 27 13
c135 65 369 170 377 168 5 -1 24 -40 42 -86z m1671 25 c18 -36 32 -69 32 -74
0 -8 -363 -191 -379 -191 -4 0 -15 26 -25 58 -10 31 -24 66 -31 78 -13 20 -8
24 126 87 76 36 141 61 144 56 11 -16 35 -10 35 9 0 17 30 40 55 41 6 1 25
-28 43 -64z m919 -153 l101 -197 -25 -18 c-13 -11 -26 -17 -27 -15 -8 10 -216
389 -216 393 0 5 51 34 60 34 3 1 51 -88 107 -197z m-70 -42 l111 -200 -30
-25 c-17 -15 -34 -22 -39 -18 -4 4 -52 101 -107 214 -97 201 -99 207 -78 217
11 6 24 11 27 11 3 1 55 -89 116 -199z m-72 -42 c58 -116 105 -215 105 -219 0
-3 -11 -14 -25 -23 l-25 -16 -110 220 -110 219 28 15 c15 9 28 15 30 16 1 0
50 -95 107 -212z m-2951 133 c-7 -7 -21 12 -29 39 -6 23 -5 23 14 -5 11 -16
18 -31 15 -34z m3276 -46 l52 -90 -27 -22 c-14 -13 -31 -20 -37 -17 -25 15
-48 91 -48 158 0 38 2 67 4 65 2 -2 27 -44 56 -94z m-1575 58 c-67 -36 -428
-204 -431 -200 -5 5 437 216 451 216 6 0 -3 -7 -20 -16z m1048 -33 l7 -45 -21
39 c-17 31 -18 40 -8 47 17 10 15 13 22 -41z m246 -375 c0 -5 -10 -18 -24 -27
l-23 -18 -72 136 c-59 113 -72 149 -80 208 -17 132 -12 127 95 -84 57 -113
104 -209 104 -215z m-224 203 c6 -49 10 -88 9 -88 -3 0 -134 248 -134 254 0 3
12 12 28 20 l27 14 29 -56 c21 -40 33 -84 41 -144z m-507 116 c18 -37 30 -70
25 -74 -4 -4 -97 -51 -206 -103 -129 -63 -200 -92 -202 -84 -13 36 -45 131
-45 134 0 4 380 192 390 193 3 0 20 -30 38 -66z m-1630 -36 c18 -50 30 -93 27
-96 -7 -7 -8 -7 -43 86 -33 87 -37 102 -24 102 4 0 22 -41 40 -92z m556 22
c16 -39 27 -72 25 -75 -7 -6 -377 -183 -398 -190 -16 -5 -23 5 -45 70 l-25 76
52 24 c29 12 120 55 202 94 83 39 152 71 155 71 3 0 18 -32 34 -70z m572 -12
c18 -56 23 -83 16 -86 -7 -2 -102 -48 -213 -103 -110 -54 -204 -99 -207 -99
-7 0 -74 162 -69 165 8 7 433 205 439 205 3 0 19 -37 34 -82z m-1713 -20 c29
-82 32 -98 18 -98 -11 0 -71 176 -63 184 9 10 17 -5 45 -86z m-641 -19 c15
-52 28 -99 28 -105 0 -6 -86 -50 -192 -98 l-191 -87 -29 27 c-26 26 -28 32
-28 113 l0 86 183 82 c100 45 186 80 192 79 5 -1 22 -45 37 -97z m1178 2 c17
-46 27 -88 23 -92 -10 -10 -351 -169 -363 -169 -10 0 -72 181 -64 189 15 15
360 168 366 162 4 -3 21 -44 38 -90z m2129 -47 c38 -75 72 -153 76 -175 4 -21
12 -37 18 -36 6 1 23 -20 39 -48 l28 -50 -26 -23 c-32 -28 -16 -50 -163 222
l-113 209 23 18 c13 10 29 19 36 19 6 0 43 -61 82 -136z m-2720 35 l30 -90
-62 -28 c-34 -16 -107 -49 -163 -75 -56 -25 -104 -46 -107 -46 -8 0 -120 151
-115 155 6 6 372 174 380 175 3 0 20 -41 37 -91z m-511 -23 c32 -44 32 -45 12
-56 -23 -12 -21 -14 -44 62 -16 56 -12 55 32 -6z m636 -12 c3 -8 2 -12 -4 -9
-6 3 -10 10 -10 16 0 14 7 11 14 -7z m1113 -21 c-9 -8 -398 -193 -406 -192 -8
1 391 197 403 198 5 1 6 -2 3 -6z m1642 -122 c57 -113 59 -120 42 -135 -27
-24 -35 -20 -61 32 -19 39 -55 222 -43 222 1 0 30 -53 62 -119z m-3899 47 l0
-62 -31 30 c-52 49 -55 62 -17 79 18 8 36 14 41 15 4 0 7 -28 7 -62z m2848 -6
c12 -38 22 -71 22 -75 0 -12 -413 -208 -421 -200 -4 5 -19 37 -33 71 l-25 64
212 103 c117 58 214 104 218 105 3 0 15 -31 27 -68z m-1650 -38 c19 -53 31
-98 28 -101 -3 -3 -8 0 -10 8 -3 8 -19 51 -36 97 -33 92 -33 92 -22 92 4 0 22
-43 40 -96z m1112 1 c18 -47 31 -86 29 -88 -71 -41 -424 -206 -429 -200 -9 10
-61 165 -57 170 2 1 98 47 213 102 115 55 209 100 210 100 1 1 16 -37 34 -84z
m-1716 -122 c-10 -7 -21 -13 -25 -13 -5 0 -17 30 -28 68 -35 118 -35 117 -9
129 22 10 24 8 52 -80 27 -87 28 -91 10 -104z m535 166 c16 -45 14 -48 -9 -14
-22 33 -25 45 -11 45 5 0 14 -14 20 -31z m597 -26 c23 -70 28 -90 21 -83 -11
10 -56 140 -48 140 4 0 16 -26 27 -57z m-40 -32 c13 -35 24 -67 24 -72 0 -5
-24 -20 -52 -33 -29 -13 -115 -53 -190 -89 l-137 -65 -27 74 c-15 41 -24 78
-20 82 15 14 351 171 365 169 7 -1 24 -31 37 -66z m-594 -37 c15 -49 28 -92
28 -95 0 -3 -30 -20 -67 -36 -38 -17 -112 -51 -165 -76 l-97 -46 -30 97 c-17
53 -27 100 -23 104 13 13 307 147 317 144 5 -1 22 -43 37 -92z m-589 -17 l25
-88 -62 -28 c-33 -15 -99 -45 -145 -67 l-84 -38 -68 74 c-38 41 -66 76 -64 79
14 13 361 167 366 162 4 -3 18 -46 32 -94z m-504 -122 c-1 -60 -3 -103 -5 -95
-3 8 -20 78 -38 155 l-34 140 39 -45 39 -45 -1 -110z m671 108 c0 -31 -27 -9
-37 30 l-11 42 24 -30 c13 -16 24 -36 24 -42z m499 -42 c-13 -4 -15 -2 -23 29
l-7 25 20 -25 c11 -14 15 -27 10 -29z m-1088 -123 l27 -99 -39 -19 c-21 -11
-41 -20 -44 -20 -3 0 -5 64 -4 143 0 136 1 141 17 118 9 -14 29 -69 43 -123z
m643 32 c27 -88 28 -126 4 -118 -14 5 -70 186 -62 199 16 26 33 1 58 -81z
m1006 85 c0 -6 -56 -35 -67 -35 -4 1 8 9 27 20 39 22 40 22 40 15z m656 -60
c13 -32 24 -63 24 -69 0 -10 -414 -217 -432 -216 -8 0 -54 138 -47 144 12 12
415 206 423 203 4 -1 19 -29 32 -62z m-1756 28 c0 -5 7 -30 15 -58 l15 -50
-39 45 c-46 51 -48 57 -23 63 28 7 32 7 32 0z m593 -70 c21 -59 24 -78 15 -84
-7 -5 -16 -5 -19 -1 -12 13 -49 144 -43 153 11 19 20 7 47 -68z m357 27 c-41
-21 -79 -39 -85 -39 -5 0 24 18 65 39 41 21 80 39 85 39 6 0 -24 -18 -65 -39z
m215 -41 c25 -45 44 -83 42 -85 -14 -15 -413 -202 -418 -196 -9 10 -62 172
-57 177 2 3 377 182 385 184 1 1 22 -36 48 -80z m-635 -14 c15 -46 20 -79 14
-84 -5 -5 -80 -43 -166 -84 l-157 -75 -25 81 c-14 45 -22 83 -18 85 4 1 77 36
162 77 85 40 158 74 161 74 3 1 16 -33 29 -74z m-606 13 c37 -131 41 -151 29
-155 -6 -2 -48 -22 -94 -44 l-82 -40 -47 53 c-26 29 -59 67 -73 84 l-26 31
132 61 c73 34 135 61 139 62 4 0 13 -24 22 -52z m-364 -53 c0 -7 -11 -17 -24
-23 -23 -10 -25 -8 -35 32 -6 24 -14 52 -17 62 -4 12 9 4 35 -21 22 -21 41
-44 41 -50z m472 -63 c-24 -18 -34 -11 -48 39 -20 66 -17 68 26 19 35 -41 38
-46 22 -58z m738 73 c-25 -13 -49 -24 -55 -24 -5 0 10 11 35 24 25 13 50 24
55 24 6 0 -10 -11 -35 -24z m-1155 -144 c14 -51 25 -98 25 -106 0 -11 -60 -41
-65 -33 -1 2 -12 44 -25 93 -12 50 -25 95 -27 101 -3 9 57 46 65 39 1 -1 14
-44 27 -94z m534 35 c1 -5 -8 -1 -19 9 -16 14 -17 20 -8 26 12 8 25 -10 27
-35z m1118 -27 c18 -30 31 -60 30 -66 -2 -13 -433 -230 -441 -222 -2 2 -16 34
-30 72 l-25 67 207 105 c114 57 211 103 217 101 5 -1 24 -27 42 -57z m-543
-29 c16 -44 25 -88 22 -97 -6 -14 -9 -15 -16 -4 -4 8 -6 19 -4 25 4 10 -16 78
-41 139 -4 9 -3 17 2 17 4 0 21 -36 37 -80z m-1215 -10 l21 -74 -60 59 -61 60
38 17 c21 9 39 16 40 15 1 -1 11 -36 22 -77z m1031 65 c-14 -8 -29 -14 -35
-14 -5 0 1 6 15 14 14 8 30 14 35 14 6 0 -1 -6 -15 -14z m-826 -113 c-32 -17
-37 -12 -57 63 l-16 60 50 -55 49 -54 -26 -14z m376 41 c22 -73 22 -77 4 -90
-32 -23 -40 -14 -62 65 -20 72 -21 78 -5 90 31 22 40 13 63 -65z m569 46 c15
-42 13 -48 -5 -24 -30 39 -36 55 -20 55 8 0 19 -14 25 -31z m-14 -74 l57 -80
-199 -96 -198 -97 -27 82 c-15 44 -27 89 -25 100 1 13 47 39 167 96 91 42 166
77 166 76 1 0 27 -37 59 -81z m-645 -15 c13 -44 21 -82 19 -84 -2 -2 -26 -13
-53 -25 l-50 -21 -45 51 c-50 56 -65 78 -59 84 5 6 151 74 159 74 3 1 16 -35
29 -79z m180 -1 c0 -4 -7 -10 -15 -13 -16 -6 -24 8 -39 64 -6 23 -4 22 24 -10
16 -19 30 -37 30 -41z m190 36 c-14 -8 -29 -14 -35 -14 -5 0 1 6 15 14 14 8
30 14 35 14 6 0 -1 -6 -15 -14z m-882 -68 c43 -46 63 -76 72 -108 6 -24 20
-74 30 -112 l19 -67 -49 -25 -48 -24 -50 199 c-27 110 -46 200 -42 200 4 0 34
-28 68 -63z m317 -26 c20 -22 45 -51 56 -65 l21 -26 -74 -34 -73 -33 -17 56
c-32 104 -32 108 -1 125 41 22 49 20 88 -23z m-141 -38 c3 -16 8 -39 12 -53 6
-23 3 -21 -35 15 -41 39 -41 39 -19 52 32 17 35 16 42 -14z m1110 11 c3 -8 2
-12 -4 -9 -6 3 -10 10 -10 16 0 14 7 11 14 -7z m-534 -91 c23 -74 27 -99 17
-105 -23 -14 -31 -2 -58 88 -25 81 -26 90 -11 102 9 6 17 12 19 12 1 0 16 -44
33 -97z m530 16 c23 -33 41 -62 39 -64 -15 -13 -434 -215 -443 -212 -12 4 -48
115 -44 134 3 12 370 200 394 202 6 1 30 -26 54 -60z m-615 -11 c8 -28 13 -53
11 -55 -2 -2 -20 17 -41 43 -30 37 -35 48 -24 55 27 17 38 8 54 -43z m-445
-98 c0 -4 -16 -14 -35 -23 -19 -9 -35 -13 -35 -9 0 4 -9 38 -20 77 l-20 69 55
-54 c30 -30 55 -57 55 -60z m415 30 l64 -75 -117 -57 c-64 -32 -122 -58 -127
-58 -6 0 -44 33 -84 74 l-74 74 73 37 c66 33 73 35 90 20 15 -13 19 -14 29 -1
9 11 9 16 0 22 -14 8 48 45 69 41 7 -1 42 -36 77 -77z m-380 -166 c14 -49 25
-95 25 -101 0 -15 -57 -46 -64 -35 -2 4 -14 44 -25 89 -12 45 -23 88 -26 95
-4 9 7 20 27 30 18 9 34 15 36 13 1 -1 14 -42 27 -91z m550 46 l7 -25 -28 28
c-24 23 -27 29 -14 37 16 10 23 2 35 -40z m-437 -116 c-24 -13 -46 -19 -49
-16 -3 4 -14 36 -23 72 -10 36 -20 74 -23 85 -3 12 23 -8 66 -50 l71 -70 -42
-21z m410 68 l51 -58 -121 -60 -120 -59 -55 59 -55 60 113 57 c63 32 119 58
126 58 6 1 34 -25 61 -57z m-629 -30 c11 -39 16 -72 13 -72 -11 0 -117 109
-111 114 6 6 73 35 76 33 1 -1 11 -35 22 -75z m401 -162 c0 -4 -41 -25 -91
-48 -60 -27 -91 -37 -94 -29 -15 46 -37 138 -34 141 2 2 27 15 54 29 l50 25
58 -56 c31 -31 57 -59 57 -62z m-243 -2 c6 -24 10 -45 7 -47 -2 -3 -20 11 -40
30 -32 31 -33 35 -17 46 28 21 38 15 50 -29z"/>
<path d="M8696 6605 c-10 -28 -7 -35 19 -35 21 0 23 3 16 22 -10 28 -27 34
-35 13z"/>
<path d="M8857 6623 c-19 -18 -5 -33 32 -33 42 0 63 16 40 31 -17 10 -63 12
-72 2z"/>
<path d="M9030 6585 c0 -45 0 -45 34 -45 36 0 66 21 66 45 0 20 -40 45 -72 45
-26 0 -28 -2 -28 -45z"/>
<path d="M10748 5473 c-53 -98 -93 -183 -89 -190 3 -6 35 -41 70 -78 41 -42
67 -63 73 -57 6 6 52 88 103 183 l94 173 -63 71 c-35 38 -70 71 -78 73 -11 2
-45 -53 -110 -175z m36 -5 c-83 -166 -92 -181 -105 -172 -5 3 3 29 19 57 16
29 58 106 92 172 35 65 65 114 67 108 2 -6 -30 -80 -73 -165z m179 0 c-11 -24
-50 -96 -85 -160 l-64 -118 -55 49 -54 49 85 166 85 165 55 -54 54 -54 -21
-43z m-209 -241 c43 -38 56 -56 47 -61 -7 -5 -16 -4 -20 0 -4 5 -29 33 -56 62
-62 67 -47 67 29 -1z"/>
<path d="M4483 5038 c41 -118 742 -1906 750 -1913 13 -13 46 -100 -370 970
-201 517 -370 945 -376 950 -7 7 -8 5 -4 -7z"/>
<path d="M4422 5020 c4 -11 672 -1727 739 -1899 5 -13 12 -22 14 -19 7 6 -734
1910 -747 1923 -8 7 -9 5 -6 -5z"/>
<path d="M4361 5004 c30 -88 754 -1934 756 -1927 5 13 -735 1914 -749 1928 -7
7 -9 6 -7 -1z"/>
<path d="M8363 4366 c-391 -167 -719 -308 -728 -313 -13 -8 17 -56 181 -289
108 -153 203 -287 213 -296 15 -16 65 5 765 317 411 184 750 336 752 338 6 6
-446 542 -460 544 -6 2 -331 -134 -723 -301z m711 264 c-13 -12 -1405 -600
-1421 -600 -7 0 -13 3 -13 8 1 11 1435 619 1439 609 2 -5 -1 -13 -5 -17z m196
-190 c90 -107 186 -221 212 -252 27 -31 45 -59 40 -62 -11 -6 -432 496 -432
515 0 8 3 9 8 4 5 -6 82 -98 172 -205z m24 -77 c113 -136 205 -248 203 -249
-12 -12 -1445 -643 -1453 -640 -12 5 -388 535 -383 540 11 8 1406 595 1416
596 6 0 104 -111 217 -247z"/>
<path d="M1790 2330 c0 -16 7 -20 34 -20 38 0 57 17 35 31 -8 5 -26 9 -41 9
-21 0 -28 -5 -28 -20z"/>
<path d="M1996 2325 c-10 -28 -7 -35 19 -35 21 0 23 3 16 22 -10 28 -27 34
-35 13z"/>
</g>
</svg>
