<svg xmlns="http://www.w3.org/2000/svg" width="20.739" height="25.798" viewBox="0 0 20.739 25.798"><defs><style>.a{fill:#fff;}</style></defs><path class="a" d="M65.917,24.133H64.275V3.745a.827.827,0,0,0-.821-.832h-6.16V.832A.827.827,0,0,0,56.472,0h-5.7a.827.827,0,0,0-.821.832v2.08h-.667a.827.827,0,0,0-.821.832V24.133H46.821a.832.832,0,0,0,0,1.664h19.1a.832.832,0,0,0,0-1.664ZM51.6,1.664h4.055V2.913H51.6Zm3.131,22.469V20.6h3.285v3.537Zm4.928,0V20.6h.359a.832.832,0,0,0,0-1.664H52.725a.832.832,0,0,0,0,1.664h.359v3.537H50.107V4.577H62.632V24.133ZM55.189,7.022a.827.827,0,0,1-.821.832h-.924a.832.832,0,0,1,0-1.664h.924A.827.827,0,0,1,55.189,7.022Zm4.877,0a.827.827,0,0,1-.821.832H58.32a.832.832,0,0,1,0-1.664h.924A.827.827,0,0,1,60.065,7.022Zm-4.877,3.121a.827.827,0,0,1-.821.832h-.924a.832.832,0,0,1,0-1.664h.924A.827.827,0,0,1,55.189,10.142Zm4.877,0a.827.827,0,0,1-.821.832H58.32a.832.832,0,0,1,0-1.664h.924A.827.827,0,0,1,60.065,10.142Zm-4.877,3.121a.827.827,0,0,1-.821.832h-.924a.832.832,0,0,1,0-1.664h.924A.827.827,0,0,1,55.189,13.263Zm4.877,0a.827.827,0,0,1-.821.832H58.32a.832.832,0,0,1,0-1.664h.924A.827.827,0,0,1,60.065,13.263Zm-4.877,3.121a.827.827,0,0,1-.821.832h-.924a.832.832,0,0,1,0-1.664h.924A.827.827,0,0,1,55.189,16.384Zm4.877,0a.827.827,0,0,1-.821.832H58.32a.832.832,0,0,1,0-1.664h.924A.827.827,0,0,1,60.065,16.384Z" transform="translate(-46)"/></svg>