<svg xmlns="http://www.w3.org/2000/svg" width="84.453" height="97.436" viewBox="0 0 84.453 97.436"><defs><style>.a{opacity:0.18;}.b{fill:#bb0e1f;}</style></defs><g class="a"><g transform="translate(0 0)"><path class="b" d="M104.82,24.627,64.512.268a1.825,1.825,0,0,0-1.9,0L22.3,24.627a2.053,2.053,0,0,0-.967,1.762V71.047a2.053,2.053,0,0,0,.967,1.762L62.608,97.168a1.825,1.825,0,0,0,1.9,0L104.82,72.809a2.053,2.053,0,0,0,.967-1.762V26.389a2.054,2.054,0,0,0-.968-1.762Z" transform="translate(-21.334 0)"/></g></g></svg>