<svg xmlns="http://www.w3.org/2000/svg" width="44.016" height="50.646" viewBox="0 0 44.016 50.646"><defs><style>.a{opacity:0.91;}.b{fill:none;stroke:#fff;}</style></defs><g class="a" transform="translate(0.5 0.516)"><g transform="translate(0 0)"><path class="b" d="M63.858,12.544,43.327.137a.93.93,0,0,0-.97,0L21.827,12.544a1.046,1.046,0,0,0-.493.9V36.188a1.046,1.046,0,0,0,.493.9L42.357,49.493a.93.93,0,0,0,.97,0L63.858,37.086a1.046,1.046,0,0,0,.493-.9V13.442a1.046,1.046,0,0,0-.493-.9Z" transform="translate(-21.334 0)"/></g></g></svg>