<svg xmlns="http://www.w3.org/2000/svg" width="18.811" height="26.712" viewBox="0 0 18.811 26.712"><defs><style>.a{fill:#fff;}</style></defs><g transform="translate(0)"><path class="a" d="M85.131,0a9.491,9.491,0,0,0-9.405,9.553V17.16a9.406,9.406,0,1,0,18.811.029V9.553A9.491,9.491,0,0,0,85.131,0Zm7.636,17.189A7.637,7.637,0,1,1,77.5,17.16V9.553a7.638,7.638,0,1,1,15.273,0Z" transform="translate(-75.726)"/></g><g transform="translate(8.521 7.312)"><path class="a" d="M239.931,140.15a.884.884,0,0,0-.885.885v3.1a.885.885,0,1,0,1.769,0v-3.1A.884.884,0,0,0,239.931,140.15Z" transform="translate(-239.046 -140.15)"/></g></svg>