<svg xmlns="http://www.w3.org/2000/svg" width="17.986" height="18.012" viewBox="0 0 17.986 18.012"><defs><style>.a{fill:#fff;}</style></defs><g transform="translate(0 0)"><path class="a" d="M14.567,37.522a1.772,1.772,0,0,0-1.285-.589,1.832,1.832,0,0,0-1.3.585l-1.2,1.2c-.1-.053-.2-.1-.293-.152-.137-.068-.266-.133-.376-.2a13.057,13.057,0,0,1-3.129-2.851,7.7,7.7,0,0,1-1.026-1.62c.312-.285.6-.582.882-.867.106-.106.213-.217.319-.323a1.744,1.744,0,0,0,0-2.631L6.12,29.033c-.118-.118-.24-.24-.354-.361-.228-.236-.468-.479-.715-.707a1.8,1.8,0,0,0-1.274-.559,1.862,1.862,0,0,0-1.293.559l-.008.008-1.293,1.3A2.781,2.781,0,0,0,.36,31.044a6.664,6.664,0,0,0,.487,2.821,16.369,16.369,0,0,0,2.908,4.851,17.89,17.89,0,0,0,5.957,4.665,9.282,9.282,0,0,0,3.345.988c.08,0,.163.008.24.008a2.865,2.865,0,0,0,2.194-.943c0-.008.011-.011.015-.019a8.643,8.643,0,0,1,.665-.688c.163-.156.331-.319.494-.49a1.9,1.9,0,0,0,.574-1.315,1.827,1.827,0,0,0-.585-1.3Zm1.361,4s0,0,0,0c-.148.16-.3.3-.464.464a10,10,0,0,0-.734.76,1.833,1.833,0,0,1-1.429.6c-.057,0-.118,0-.175,0a8.245,8.245,0,0,1-2.965-.89A16.887,16.887,0,0,1,4.55,38.066a15.434,15.434,0,0,1-2.737-4.558,5.428,5.428,0,0,1-.426-2.38A1.745,1.745,0,0,1,1.911,30l1.3-1.3a.864.864,0,0,1,.578-.27.813.813,0,0,1,.555.266l.011.011c.232.217.452.441.684.68.118.122.24.243.361.369L6.435,30.8a.726.726,0,0,1,0,1.179c-.11.11-.217.22-.327.327-.319.327-.623.631-.954.928-.008.008-.015.011-.019.019a.775.775,0,0,0-.2.863l.011.034a8.332,8.332,0,0,0,1.228,2l0,0a13.953,13.953,0,0,0,3.376,3.072,5.191,5.191,0,0,0,.468.255c.137.068.266.133.376.2.015.008.03.019.046.027a.824.824,0,0,0,.376.1.813.813,0,0,0,.578-.262l1.3-1.3a.86.86,0,0,1,.574-.285.774.774,0,0,1,.547.278l.008.008,2.095,2.095A.752.752,0,0,1,15.928,41.525Z" transform="translate(-0.344 -26.364)"/><path class="a" d="M245.366,86.943a4.893,4.893,0,0,1,3.984,3.984.51.51,0,0,0,.506.426.679.679,0,0,0,.087-.008.514.514,0,0,0,.422-.593,5.916,5.916,0,0,0-4.82-4.82.516.516,0,0,0-.593.418A.508.508,0,0,0,245.366,86.943Z" transform="translate(-235.645 -82.659)"/><path class="a" d="M257.309,7.946A9.741,9.741,0,0,0,249.371.008a.512.512,0,1,0-.167,1.011A8.7,8.7,0,0,1,256.3,8.113a.51.51,0,0,0,.506.426.679.679,0,0,0,.087-.008A.5.5,0,0,0,257.309,7.946Z" transform="translate(-239.331 0)"/></g></svg>