<svg xmlns="http://www.w3.org/2000/svg" width="20.363" height="20.363" viewBox="0 0 20.363 20.363"><defs><style>.a{fill:#fff;}</style></defs><g transform="translate(0 0)"><path class="a" d="M18.729,13.366a11.561,11.561,0,0,1-3.631-.578,1.6,1.6,0,0,0-1.614.34l-2.29,1.728A12.653,12.653,0,0,1,5.506,9.168l1.678-2.23a1.646,1.646,0,0,0,.4-1.668,11.579,11.579,0,0,1-.581-3.637A1.636,1.636,0,0,0,5.374,0H1.634A1.636,1.636,0,0,0,0,1.634,18.75,18.75,0,0,0,18.729,20.363a1.636,1.636,0,0,0,1.634-1.634V15A1.636,1.636,0,0,0,18.729,13.366Zm.5,5.363a.5.5,0,0,1-.5.5,17.617,17.617,0,0,1-17.6-17.6.5.5,0,0,1,.5-.5h3.74a.5.5,0,0,1,.5.5,12.685,12.685,0,0,0,.635,3.983.563.563,0,0,1-.179.58L4.388,8.772a.566.566,0,0,0-.053.6,14.042,14.042,0,0,0,6.657,6.657.563.563,0,0,0,.6-.052l2.634-2a.5.5,0,0,1,.513-.119,12.7,12.7,0,0,0,3.991.637.5.5,0,0,1,.5.5Z" transform="translate(0 0)"/></g></svg>