<svg xmlns="http://www.w3.org/2000/svg" width="40.288" height="46.644" viewBox="0 0 40.288 46.644"><defs><style>.a{fill:#fff;}</style></defs><path class="a" d="M72.141,17.939,44.592.958a6.37,6.37,0,0,0-9.709,5.424V40.191a6.437,6.437,0,0,0,6.356,6.453h.029a6.392,6.392,0,0,0,3.3-.994,1.819,1.819,0,0,0-1.895-3.105,2.791,2.791,0,0,1-1.417.461,2.826,2.826,0,0,1-2.738-2.815V6.382a2.732,2.732,0,0,1,4.164-2.327L70.233,21.036a2.732,2.732,0,0,1-.012,4.661L50.3,37.893A1.819,1.819,0,0,0,52.2,41L72.118,28.8a6.37,6.37,0,0,0,.023-10.862Z" transform="translate(-34.883 0)"/></svg>